<svg width="15" height="14" viewBox="0 0 15 14" fill="none" xmlns="http://www.w3.org/2000/svg">
<path d="M12.2931 2.02063C10.9992 0.731208 9.27395 0.0148621 7.45288 0.0148621C3.66698 0.0148621 0.599924 3.07127 0.599924 6.84403C0.599924 8.03794 0.935384 9.23185 1.51046 10.2347L0.552002 13.7687L4.19414 12.8136C5.20052 13.3389 6.30274 13.6254 7.45288 13.6254C11.2388 13.6254 14.3058 10.569 14.3058 6.79627C14.2579 5.02929 13.587 3.31005 12.2931 2.02063ZM10.7596 9.2796C10.6158 9.66166 9.94487 10.0437 9.60941 10.0915C9.32187 10.1392 8.93849 10.1392 8.55511 10.0437C8.3155 9.9482 7.98004 9.85268 7.59665 9.66166C5.87143 8.94531 4.76921 7.22608 4.67336 7.08281C4.57752 6.9873 3.95452 6.17544 3.95452 5.31582C3.95452 4.45621 4.38583 4.07416 4.52959 3.88313C4.67336 3.6921 4.86505 3.69211 5.00882 3.69211C5.10467 3.69211 5.24844 3.69211 5.34428 3.69211C5.44013 3.69211 5.5839 3.64435 5.72766 3.97864C5.87143 4.31294 6.20689 5.17255 6.25481 5.22031C6.30274 5.31582 6.30274 5.41134 6.25481 5.50685C6.20689 5.60236 6.15897 5.69787 6.06312 5.79339C5.96728 5.8889 5.87143 6.03217 5.82351 6.07993C5.72766 6.17544 5.63182 6.27095 5.72766 6.41422C5.82351 6.60525 6.15897 7.13057 6.68612 7.60813C7.35704 8.18121 7.88419 8.37223 8.07588 8.46775C8.26757 8.56326 8.36342 8.5155 8.45926 8.41999C8.55511 8.32448 8.89057 7.94243 8.98642 7.7514C9.08226 7.56038 9.22603 7.60813 9.3698 7.65589C9.51357 7.70364 10.3762 8.13345 10.5199 8.22896C10.7116 8.32448 10.8075 8.37223 10.8554 8.41999C10.9033 8.56326 10.9033 8.89755 10.7596 9.2796Z" fill="white"/>
</svg>
