<svg width="15" height="15" viewBox="0 0 15 15" fill="none" xmlns="http://www.w3.org/2000/svg">
<path d="M12.6508 2.95244C11.3568 1.66302 9.63162 0.946671 7.81055 0.946671C4.02465 0.946671 0.95759 4.00308 0.95759 7.77584C0.95759 8.96975 1.29305 10.1637 1.86812 11.1665L0.909668 14.7005L4.5518 13.7454C5.55818 14.2707 6.6604 14.5572 7.81055 14.5572C11.5965 14.5572 14.6635 11.5008 14.6635 7.72808C14.6156 5.96109 13.9447 4.24186 12.6508 2.95244ZM11.1172 10.2114C10.9735 10.5935 10.3025 10.9755 9.96708 11.0233C9.67954 11.071 9.29616 11.071 8.91278 10.9755C8.67316 10.88 8.3377 10.7845 7.95432 10.5935C6.2291 9.87712 5.12688 8.15789 5.03103 8.01462C4.93518 7.91911 4.31219 7.10725 4.31219 6.24763C4.31219 5.38802 4.74349 5.00596 4.88726 4.81494C5.03103 4.62391 5.22272 4.62391 5.36649 4.62391C5.46233 4.62391 5.6061 4.62391 5.70195 4.62391C5.79779 4.62391 5.94156 4.57616 6.08533 4.91045C6.2291 5.24475 6.56456 6.10436 6.61248 6.15212C6.6604 6.24763 6.6604 6.34314 6.61248 6.43866C6.56456 6.53417 6.51663 6.62968 6.42079 6.7252C6.32494 6.82071 6.2291 6.96398 6.18117 7.01173C6.08533 7.10725 5.98948 7.20276 6.08533 7.34603C6.18118 7.53705 6.51664 8.06237 7.04379 8.53994C7.71471 9.11302 8.24186 9.30404 8.43355 9.39956C8.62524 9.49507 8.72108 9.44731 8.81693 9.3518C8.91278 9.25628 9.24824 8.87423 9.34408 8.68321C9.43993 8.49218 9.58369 8.53994 9.72746 8.5877C9.87123 8.63545 10.7338 9.06526 10.8776 9.16077C11.0693 9.25629 11.1651 9.30404 11.2131 9.3518C11.261 9.49507 11.261 9.82936 11.1172 10.2114Z" fill="#455461"/>
</svg>
