<svg width="266" height="65" viewBox="0 0 266 65" fill="none" xmlns="http://www.w3.org/2000/svg">
<path d="M0 48H265V50H0V48Z" fill="#F77719"/>
<path d="M132.036 5.00879H156.274V34.7578H160.241V50.8651H149.926V44.9156H134.777V50.8651H124.462V34.7578H128.069L132.036 5.00879ZM137.519 34.7578H145.958V15.1673H140.332L137.519 34.7578ZM161.598 5.00879H190.957V33.3786H171.913V44.9156H161.598V5.00879ZM171.913 15.1673V23.9465H180.641V15.1673H171.913ZM194.839 5.00879H224.414V44.9156H194.839V5.00879ZM205.154 15.1673V34.7578H214.098V15.1673H205.154ZM228.657 5.00879H238.972L247.051 20.609L255.13 5.00879H265.445V44.9156H255.13V20.464L247.051 35.9184L238.972 20.464V44.9156H228.657V15.1673V5.00879Z" fill="white"/>
<path d="M4.90952 5.00879H26.117L31.0221 44.9156H20.9236L20.1297 36.2813H10.8968L10.1029 44.9156H0.00439453L4.90952 5.00879ZM11.9065 26.1228H19.12L18.1103 15.1673H12.9162L11.9065 26.1228ZM32.0174 5.00879H61.5922V20.9718L56.7596 24.9622L61.5922 28.9526V44.9156H32.0174V15.1673V5.00879ZM51.4937 13.7159H42.1159V20.9718H48.7521L51.4937 18.0692V13.7159ZM42.1159 28.9526V36.2084H51.4937V31.8552L48.7521 28.9526H42.1159ZM62.5158 5.00879H91.8748V15.1673H82.3528V44.9156H72.0377V15.1673H62.5158V5.00879ZM93.0866 5.00879H122.661V44.9156H93.0866V5.00879ZM103.402 15.1673V34.7578H112.346V15.1673H103.402Z" fill="#F77719"/>
<path d="M0 0H265V2H0V0Z" fill="white"/>
<path d="M7.93555 64H5.68555V56.9629H2.36328V64H0.113281V55.2754H7.93555V64Z" fill="white"/>
<path d="M19.2896 55.2754L16.1138 62.2539C15.9302 62.6562 15.7193 62.9805 15.481 63.2266C15.2427 63.4727 14.9966 63.6543 14.7427 63.7715C14.4888 63.8926 14.2369 63.9707 13.9869 64.0059C13.7408 64.041 13.4947 64.0586 13.2486 64.0586C12.9752 64.0586 12.6509 64.0508 12.2759 64.0352C11.9009 64.0234 11.6529 64.0117 11.5318 64V62.0957H11.6666C11.7486 62.1191 11.8931 62.1445 12.1002 62.1719C12.3072 62.1953 12.5123 62.207 12.7154 62.207C13.1021 62.207 13.4146 62.1699 13.6529 62.0957C13.8951 62.0215 14.0435 61.9238 14.0982 61.8027L10.5533 55.2754H12.9966L15.1646 59.4121L16.9517 55.2754H19.2896Z" fill="white"/>
<path d="M29.7179 64H27.4679V60.1562H24.1456V64H21.8956V55.2754H24.1456V58.4688H27.4679V55.2754H29.7179V64Z" fill="white"/>
<path d="M41.529 64H38.7692L36.1911 60.4785H35.6403V64H33.3903V55.2754H35.6403V58.832C35.8239 58.8242 35.9762 58.8066 36.0973 58.7793C36.2184 58.748 36.3298 58.6953 36.4313 58.6211C36.5368 58.543 36.6501 58.4277 36.7712 58.2754C36.8923 58.1191 37.0192 57.9277 37.152 57.7012C37.2341 57.5605 37.3259 57.3945 37.4274 57.2031C37.5329 57.0078 37.6208 56.8477 37.6911 56.7227C37.9919 56.1953 38.3083 55.8203 38.6403 55.5977C38.9723 55.3711 39.4743 55.2578 40.1462 55.2578C40.3454 55.2578 40.5231 55.2617 40.6794 55.2695C40.8356 55.2734 40.9509 55.2754 41.0251 55.2754V57.168H40.3747C40.0544 57.168 39.8044 57.25 39.6247 57.4141C39.4489 57.5781 39.2536 57.8672 39.0387 58.2812C38.8239 58.6914 38.6481 58.9805 38.5114 59.1484C38.3747 59.3125 38.2419 59.4297 38.113 59.5L41.529 64Z" fill="white"/>
<path d="M50.9143 56.9629H48.1897V64H45.9397V56.9629H43.2151V55.2754H50.9143V56.9629Z" fill="white"/>
<path d="M66.0755 56.9629H63.3509V64H61.1009V56.9629H58.3763V55.2754H66.0755V56.9629Z" fill="white"/>
<path d="M75.1796 64H68.8691V55.2754H75.1796V56.9629H71.1073V58.4688H74.8866V60.1562H71.1073V62.3125H75.1796V64Z" fill="white"/>
<path d="M86.4223 64H83.8208L81.9399 61.1289L80.0239 64H77.5395L80.6333 59.6055L77.604 55.2754H80.1997L82.0161 57.9941L83.8852 55.2754H86.3755L83.3286 59.5176L86.4223 64Z" fill="white"/>
<path d="M96.9385 64H94.6885V60.1562H91.3662V64H89.1162V55.2754H91.3662V58.4688H94.6885V55.2754H96.9385V64Z" fill="white"/>
<path d="M108.568 64H106.377V58.1934L102.755 64H100.611V55.2754H102.802V60.5312L106.171 55.2754H108.568V64Z" fill="white"/>
<path d="M119.418 64H117.168V60.7715C116.723 60.8652 116.338 60.9375 116.014 60.9883C115.694 61.0352 115.27 61.0586 114.742 61.0586C114.336 61.0586 113.959 61.0098 113.611 60.9121C113.268 60.8145 112.965 60.6602 112.703 60.4492C112.438 60.2383 112.229 59.9707 112.076 59.6465C111.928 59.3223 111.854 58.9395 111.854 58.498V55.2754H114.115V57.3438C114.115 57.6836 114.131 57.9707 114.162 58.2051C114.194 58.4355 114.276 58.6406 114.408 58.8203C114.533 58.9961 114.713 59.1289 114.947 59.2188C115.186 59.3086 115.52 59.3535 115.949 59.3535C116.106 59.3535 116.309 59.3438 116.559 59.3242C116.809 59.3047 117.012 59.2812 117.168 59.2539V55.2754H119.418V64Z" fill="white"/>
<path d="M129.395 64H123.085V55.2754H129.395V56.9629H125.323V58.4688H129.102V60.1562H125.323V62.3125H129.395V64Z" fill="white"/>
<path d="M136.671 64.1699C136.023 64.1699 135.423 64.0742 134.872 63.8828C134.325 63.6914 133.855 63.4062 133.46 63.0273C133.066 62.6484 132.759 62.1758 132.54 61.6094C132.325 61.043 132.218 60.3887 132.218 59.6465C132.218 58.9551 132.322 58.3281 132.529 57.7656C132.736 57.2031 133.036 56.7207 133.431 56.3184C133.81 55.9316 134.279 55.6328 134.837 55.4219C135.4 55.2109 136.013 55.1055 136.677 55.1055C137.044 55.1055 137.374 55.127 137.667 55.1699C137.964 55.209 138.238 55.2617 138.488 55.3281C138.749 55.4023 138.986 55.4863 139.197 55.5801C139.411 55.6699 139.599 55.7539 139.759 55.832V57.9473H139.501C139.392 57.8535 139.253 57.7422 139.085 57.6133C138.921 57.4844 138.734 57.3574 138.523 57.2324C138.308 57.1074 138.075 57.002 137.825 56.916C137.575 56.8301 137.308 56.7871 137.023 56.7871C136.706 56.7871 136.406 56.8379 136.12 56.9395C135.835 57.0371 135.572 57.2012 135.329 57.4316C135.099 57.6543 134.911 57.9492 134.767 58.3164C134.626 58.6836 134.556 59.1289 134.556 59.6523C134.556 60.1992 134.632 60.6562 134.784 61.0234C134.941 61.3906 135.136 61.6797 135.37 61.8906C135.609 62.1055 135.874 62.2598 136.167 62.3535C136.46 62.4434 136.749 62.4883 137.034 62.4883C137.308 62.4883 137.577 62.4473 137.843 62.3652C138.113 62.2832 138.361 62.1719 138.587 62.0312C138.779 61.918 138.956 61.7969 139.12 61.668C139.284 61.5391 139.419 61.4277 139.525 61.334H139.759V63.4199C139.54 63.5176 139.331 63.6094 139.132 63.6953C138.933 63.7812 138.724 63.8555 138.505 63.918C138.22 64 137.952 64.0625 137.702 64.1055C137.452 64.1484 137.109 64.1699 136.671 64.1699Z" fill="white"/>
<path d="M150.99 64H148.23L145.652 60.4785H145.101V64H142.851V55.2754H145.101V58.832C145.285 58.8242 145.437 58.8066 145.558 58.7793C145.68 58.748 145.791 58.6953 145.892 58.6211C145.998 58.543 146.111 58.4277 146.232 58.2754C146.353 58.1191 146.48 57.9277 146.613 57.7012C146.695 57.5605 146.787 57.3945 146.889 57.2031C146.994 57.0078 147.082 56.8477 147.152 56.7227C147.453 56.1953 147.769 55.8203 148.101 55.5977C148.433 55.3711 148.935 55.2578 149.607 55.2578C149.806 55.2578 149.984 55.2617 150.14 55.2695C150.297 55.2734 150.412 55.2754 150.486 55.2754V57.168H149.836C149.515 57.168 149.265 57.25 149.086 57.4141C148.91 57.5781 148.715 57.8672 148.5 58.2812C148.285 58.6914 148.109 58.9805 147.973 59.1484C147.836 59.3125 147.703 59.4297 147.574 59.5L150.99 64Z" fill="white"/>
<path d="M162.034 59.6406C162.034 61.0312 161.635 62.1367 160.838 62.957C160.041 63.7734 158.94 64.1816 157.534 64.1816C156.131 64.1816 155.032 63.7734 154.235 62.957C153.438 62.1367 153.039 61.0312 153.039 59.6406C153.039 58.2383 153.438 57.1309 154.235 56.3184C155.032 55.502 156.131 55.0938 157.534 55.0938C158.932 55.0938 160.032 55.502 160.832 56.3184C161.633 57.1309 162.034 58.2383 162.034 59.6406ZM159.051 61.8496C159.27 61.584 159.432 61.2715 159.538 60.9121C159.643 60.5488 159.696 60.123 159.696 59.6348C159.696 59.1113 159.635 58.666 159.514 58.2988C159.393 57.9316 159.235 57.6348 159.039 57.4082C158.84 57.1738 158.61 57.0039 158.348 56.8984C158.09 56.793 157.821 56.7402 157.539 56.7402C157.254 56.7402 156.985 56.791 156.731 56.8926C156.481 56.9941 156.25 57.1621 156.039 57.3965C155.844 57.6152 155.684 57.918 155.559 58.3047C155.438 58.6875 155.377 59.1328 155.377 59.6406C155.377 60.1602 155.436 60.6035 155.553 60.9707C155.674 61.334 155.832 61.6309 156.028 61.8613C156.223 62.0918 156.452 62.2617 156.713 62.3711C156.975 62.4805 157.25 62.5352 157.539 62.5352C157.829 62.5352 158.104 62.4805 158.366 62.3711C158.627 62.2578 158.856 62.084 159.051 61.8496Z" fill="white"/>
<path d="M171.489 56.9629H167.446V64H165.196V55.2754H171.489V56.9629Z" fill="white"/>
<path d="M182.773 59.6406C182.773 61.0312 182.375 62.1367 181.578 62.957C180.781 63.7734 179.679 64.1816 178.273 64.1816C176.871 64.1816 175.771 63.7734 174.974 62.957C174.177 62.1367 173.779 61.0312 173.779 59.6406C173.779 58.2383 174.177 57.1309 174.974 56.3184C175.771 55.502 176.871 55.0938 178.273 55.0938C179.671 55.0938 180.771 55.502 181.572 56.3184C182.373 57.1309 182.773 58.2383 182.773 59.6406ZM179.791 61.8496C180.009 61.584 180.171 61.2715 180.277 60.9121C180.382 60.5488 180.435 60.123 180.435 59.6348C180.435 59.1113 180.375 58.666 180.253 58.2988C180.132 57.9316 179.974 57.6348 179.779 57.4082C179.58 57.1738 179.349 57.0039 179.087 56.8984C178.83 56.793 178.56 56.7402 178.279 56.7402C177.994 56.7402 177.724 56.791 177.47 56.8926C177.22 56.9941 176.99 57.1621 176.779 57.3965C176.584 57.6152 176.423 57.918 176.298 58.3047C176.177 58.6875 176.117 59.1328 176.117 59.6406C176.117 60.1602 176.175 60.6035 176.292 60.9707C176.414 61.334 176.572 61.6309 176.767 61.8613C176.962 62.0918 177.191 62.2617 177.453 62.3711C177.714 62.4805 177.99 62.5352 178.279 62.5352C178.568 62.5352 178.843 62.4805 179.105 62.3711C179.367 62.2578 179.595 62.084 179.791 61.8496Z" fill="white"/>
<path d="M199.962 59.6406C199.962 61.0312 199.563 62.1367 198.766 62.957C197.969 63.7734 196.868 64.1816 195.462 64.1816C194.059 64.1816 192.96 63.7734 192.163 62.957C191.366 62.1367 190.967 61.0312 190.967 59.6406C190.967 58.2383 191.366 57.1309 192.163 56.3184C192.96 55.502 194.059 55.0938 195.462 55.0938C196.86 55.0938 197.96 55.502 198.76 56.3184C199.561 57.1309 199.962 58.2383 199.962 59.6406ZM196.979 61.8496C197.198 61.584 197.36 61.2715 197.465 60.9121C197.571 60.5488 197.624 60.123 197.624 59.6348C197.624 59.1113 197.563 58.666 197.442 58.2988C197.321 57.9316 197.163 57.6348 196.967 57.4082C196.768 57.1738 196.538 57.0039 196.276 56.8984C196.018 56.793 195.749 56.7402 195.467 56.7402C195.182 56.7402 194.913 56.791 194.659 56.8926C194.409 56.9941 194.178 57.1621 193.967 57.3965C193.772 57.6152 193.612 57.918 193.487 58.3047C193.366 58.6875 193.305 59.1328 193.305 59.6406C193.305 60.1602 193.364 60.6035 193.481 60.9707C193.602 61.334 193.76 61.6309 193.956 61.8613C194.151 62.0918 194.38 62.2617 194.641 62.3711C194.903 62.4805 195.178 62.5352 195.467 62.5352C195.756 62.5352 196.032 62.4805 196.294 62.3711C196.555 62.2578 196.784 62.084 196.979 61.8496Z" fill="white"/>
<path d="M207.068 64.1699C206.419 64.1699 205.82 64.0742 205.269 63.8828C204.722 63.6914 204.251 63.4062 203.857 63.0273C203.462 62.6484 203.155 62.1758 202.937 61.6094C202.722 61.043 202.614 60.3887 202.614 59.6465C202.614 58.9551 202.718 58.3281 202.925 57.7656C203.132 57.2031 203.433 56.7207 203.827 56.3184C204.206 55.9316 204.675 55.6328 205.234 55.4219C205.796 55.2109 206.409 55.1055 207.073 55.1055C207.441 55.1055 207.771 55.127 208.064 55.1699C208.361 55.209 208.634 55.2617 208.884 55.3281C209.146 55.4023 209.382 55.4863 209.593 55.5801C209.808 55.6699 209.995 55.7539 210.155 55.832V57.9473H209.898C209.788 57.8535 209.65 57.7422 209.482 57.6133C209.318 57.4844 209.13 57.3574 208.919 57.2324C208.704 57.1074 208.472 57.002 208.222 56.916C207.972 56.8301 207.704 56.7871 207.419 56.7871C207.103 56.7871 206.802 56.8379 206.517 56.9395C206.232 57.0371 205.968 57.2012 205.726 57.4316C205.495 57.6543 205.308 57.9492 205.163 58.3164C205.023 58.6836 204.952 59.1289 204.952 59.6523C204.952 60.1992 205.029 60.6562 205.181 61.0234C205.337 61.3906 205.532 61.6797 205.767 61.8906C206.005 62.1055 206.271 62.2598 206.564 62.3535C206.857 62.4434 207.146 62.4883 207.431 62.4883C207.704 62.4883 207.974 62.4473 208.239 62.3652C208.509 62.2832 208.757 62.1719 208.984 62.0312C209.175 61.918 209.353 61.7969 209.517 61.668C209.681 61.5391 209.816 61.4277 209.921 61.334H210.155V63.4199C209.937 63.5176 209.728 63.6094 209.529 63.6953C209.329 63.7812 209.12 63.8555 208.902 63.918C208.616 64 208.349 64.0625 208.099 64.1055C207.849 64.1484 207.505 64.1699 207.068 64.1699Z" fill="white"/>
<path d="M222.394 64H220.156V58.1582L218.539 61.9492H216.986L215.369 58.1582V64H213.248V55.2754H215.861L217.824 59.6523L219.781 55.2754H222.394V64Z" fill="white"/>
<path d="M234.551 59.6406C234.551 61.0312 234.153 62.1367 233.356 62.957C232.559 63.7734 231.457 64.1816 230.051 64.1816C228.649 64.1816 227.549 63.7734 226.752 62.957C225.955 62.1367 225.557 61.0312 225.557 59.6406C225.557 58.2383 225.955 57.1309 226.752 56.3184C227.549 55.502 228.649 55.0938 230.051 55.0938C231.45 55.0938 232.549 55.502 233.35 56.3184C234.151 57.1309 234.551 58.2383 234.551 59.6406ZM231.569 61.8496C231.787 61.584 231.95 61.2715 232.055 60.9121C232.16 60.5488 232.213 60.123 232.213 59.6348C232.213 59.1113 232.153 58.666 232.032 58.2988C231.91 57.9316 231.752 57.6348 231.557 57.4082C231.358 57.1738 231.127 57.0039 230.866 56.8984C230.608 56.793 230.338 56.7402 230.057 56.7402C229.772 56.7402 229.502 56.791 229.248 56.8926C228.998 56.9941 228.768 57.1621 228.557 57.3965C228.362 57.6152 228.201 57.918 228.076 58.3047C227.955 58.6875 227.895 59.1328 227.895 59.6406C227.895 60.1602 227.953 60.6035 228.071 60.9707C228.192 61.334 228.35 61.6309 228.545 61.8613C228.741 62.0918 228.969 62.2617 229.231 62.3711C229.493 62.4805 229.768 62.5352 230.057 62.5352C230.346 62.5352 230.621 62.4805 230.883 62.3711C231.145 62.2578 231.373 62.084 231.569 61.8496Z" fill="white"/>
<path d="M244.54 56.9629H241.815V64H239.565V56.9629H236.841V55.2754H244.54V56.9629Z" fill="white"/>
<path d="M254.535 58.0293C254.535 58.4199 254.466 58.8027 254.33 59.1777C254.193 59.5488 253.997 59.8613 253.744 60.1152C253.396 60.459 253.007 60.7188 252.578 60.8945C252.152 61.0703 251.621 61.1582 250.984 61.1582H249.583V64H247.333V55.2754H251.037C251.591 55.2754 252.058 55.3242 252.437 55.4219C252.82 55.5156 253.158 55.6582 253.451 55.8496C253.802 56.0801 254.07 56.375 254.253 56.7344C254.441 57.0938 254.535 57.5254 254.535 58.0293ZM252.208 58.082C252.208 57.8359 252.142 57.625 252.009 57.4492C251.876 57.2695 251.722 57.1445 251.546 57.0742C251.312 56.9805 251.083 56.9297 250.861 56.9219C250.638 56.9102 250.341 56.9043 249.97 56.9043H249.583V59.5176H250.228C250.611 59.5176 250.925 59.4941 251.171 59.4473C251.421 59.4004 251.63 59.3066 251.798 59.166C251.943 59.041 252.046 58.8926 252.109 58.7207C252.175 58.5449 252.208 58.332 252.208 58.082Z" fill="white"/>
<path d="M265.637 64H263.311L262.707 62.2363H259.473L258.869 64H256.602L259.824 55.2754H262.414L265.637 64ZM262.162 60.6367L261.09 57.5078L260.018 60.6367H262.162Z" fill="white"/>
</svg>
