<svg version="1.2" xmlns="http://www.w3.org/2000/svg" viewBox="0 0 921 689" width="921" height="689">
	<title>1636076445_8-papik-pro-p-tsvergpincher-vektornii-risunok-11</title>
	<style>
		.s0 { fill: none;stroke: #370505;stroke-miterlimit:100 } 
		.s1 { fill: none;stroke: #370505;stroke-miterlimit:100;stroke-width: 5.6 } 
	</style>
	<path id="Слой 1" class="s0" d=""/>
	<path id="форма 1" class="s1" d="m79.8 71.6c0 0 20.7-1.7 41.4-3.4 21.8-1.9 24.2 3.6 44.2-4.6 14.6-6 13.4-17.4 45.6-19.6 23.3-1.6 36.6 9.7 47.6 8.6 11-1.1 5.6-13.2 27.6-16.8 20-3.3 57-8.6 57-8.6 0 0-4.5 25.4-15.4 43.4-9.4 15.4-35.4 20.7-28.4 34.6 7 13.9 12.8 33 19.6 54.2 5.2 16.1 9.6 44.3 25.6 56.2 16 11.9 41.4 14.7 59.4 21.6 18 6.9 47 13.5 90 13.4 43-0.1 131.4 13 143.4-4 15.4-21.8 13.5-53.5-3.2-71.6-24.2-26.2-85.2-17.2-85.2-17.2 0 0 7.6-22.5 42.6-21.6 41.2 1 54.8 15.3 67.8 32.2 13 16.9 22.8 60.7 13.8 79.6-9 18.9-4.1 38.2 6.2 55 11.4 18.6 15.2 30.4 13.6 60.8-1.4 26.2-1.7 51.8 14.8 73 19.6 25.2 36.4 35.6 50.4 39.2 19.6 5 24.6 42.2 26.8 73 1.7 24 12 40.7 11 49.6-1 8.9-7.4 8.8-7.2 18.4 0.3 12.9 6.8 21.5-3.2 28.4-10 6.9-18.2 5-30.8 5.6-12 0.6-16.7 3.9-26.2-3.8-4.2-3.4-14.8-9.3-5.8-15.4 9-6.1 25.4-14.8 25.4-14.8 0 0-20.6-8.6-18.6-16.6 1.4-5.7 24.6-11.6 24.6-11.6 0 0-4.1-41.7-43.8-66.2-20.4-12.6-58.4-37.8-81.8-54.6-24.2-17.3-45.5-43.1-110.6-49.8-58-6-90.8-9.1-120.8 3.8-30 12.9-51 16.4-56.2 16.4-3.2 0-4 59.3-9 87.2-5 27.9-4.2 54.6-8.6 55.6-12.2 2.7-11.6 19.2-13 33.2-1.7 16.8 6.3 24.3-17.6 26.6-45.6 4.4-59-7.6-59-7.6 0 0 1.2-8.5 10-11.6 10.6-3.8 11.8-6.6 7.4-8.2-11-4-14.4-7.4-14.4-7.4 0 0 7-10.8 20.6-16.6 8.8-3.8 22.6-2.1 24.6-20.2 2-18.1-0.8-85.5-0.8-99.6 0-14.1-9.2-49.4-9.2-49.4 0 0-7-13-15-25.4-17.6-27.2-29-64.8-29.2-79.6-0.3-22.2 2.2-37.2-10.4-65.6-8-18.1-2.4-38.3-18.4-60.2-5.4-7.4-5.2-16.9-15.2-26-10-9.1-37.8-19.9-55.8-26-18-6.1-23.6-8.4-48-45.6-2.8-4.2-1.2-6.8-1.2-12 0-5 1-8.4 1-8.4z"/>
</svg>