<svg width="96" height="96" viewBox="0 0 96 96" fill="none" xmlns="http://www.w3.org/2000/svg">
<path d="M92.0262 26.2656L50.1853 72.2131C49.797 72.6395 49.1294 72.6499 48.7279 72.2358L4.21422 26.3158C3.46563 25.5435 4.30542 24.2615 5.31589 24.6298C17.1263 28.9349 37.405 35.203 49.4687 34.9403C61.4629 34.6791 80.0786 28.6858 90.8867 24.6084C91.8833 24.2324 92.7434 25.4781 92.0262 26.2656Z" fill="#441600"/>
<path fill-rule="evenodd" clip-rule="evenodd" d="M91.6565 25.929C92.0069 25.5442 91.5862 24.8789 91.0632 25.0762C85.648 27.1192 78.2766 29.6422 70.7537 31.6879C63.2389 33.7315 55.5391 35.3082 49.4796 35.4402C43.3759 35.5731 35.2351 34.0567 27.1727 31.9822C19.0992 29.9048 11.061 27.2562 5.14465 25.0995C4.62178 24.909 4.20251 25.5853 4.57322 25.9678L49.087 71.8878C49.2877 72.0949 49.6215 72.0896 49.8157 71.8764L91.6565 25.929ZM90.7102 24.1406C92.1804 23.586 93.4799 25.4119 92.3959 26.6023L50.555 72.5497C49.9725 73.1894 48.9711 73.205 48.3689 72.5838L3.85521 26.6638C2.72876 25.5018 3.98906 23.6139 5.48713 24.16C11.3812 26.3085 19.3876 28.9465 27.4219 31.0137C35.4674 33.0839 43.4978 34.5702 49.4579 34.4404C55.3926 34.3112 62.9977 32.7607 70.4913 30.723C77.9768 28.6874 85.3173 26.1751 90.7102 24.1406Z" fill="#441600"/>
</svg>
