<?xml version="1.0" encoding="utf-8"?>
<!-- Generator: Adobe Illustrator 27.5.0, SVG Export Plug-In . SVG Version: 6.00 Build 0)  -->
<svg version="1.1" xmlns="http://www.w3.org/2000/svg" xmlns:xlink="http://www.w3.org/1999/xlink" x="0px" y="0px"
	 viewBox="0 0 500 500" style="enable-background:new 0 0 500 500;" xml:space="preserve">
<g id="BACKGROUND">
	<rect style="fill:#F2E3C2;" width="500" height="500"/>
</g>
<g id="OBJECTS">
	<ellipse style="opacity:0.5;fill:#EBCC99;" cx="250" cy="434.039" rx="173.489" ry="28.001"/>
	<g>
		<g>
			<path style="fill:#361D0D;" d="M257.435,162.908c0.35-0.1,0.628-0.024,0.88,0.043c0.256,0.077,0.485,0.187,0.699,0.301
				c0.824,0.451,1.695,0.962,2.262,1.846c0.286,0.437,0.402,0.983,0.471,1.428c0.074,0.458,0.185,0.829,0.417,1.178
				c0.451,0.697,1.215,1.195,1.981,1.71c0.385,0.26,0.78,0.528,1.155,0.846c0.379,0.318,0.71,0.683,1.014,1.041
				c0.607,0.713,1.158,1.443,1.858,1.85c0.348,0.214,0.703,0.301,1.164,0.383c0.453,0.073,0.998,0.225,1.445,0.457
				c0.918,0.459,1.621,1.127,2.331,1.671c0.704,0.551,1.434,0.989,2.213,1.065c0.782,0.089,1.615-0.123,2.244-0.59
				c0.307-0.205,0.583-0.606,1.138-0.92c0.573-0.3,1.148-0.283,1.594-0.299c1.687,0.083,2.832-1.409,3.94-2.885
				c0.303-0.378,0.673-0.804,1.237-1.046c0.573-0.241,1.207-0.174,1.712,0.031c0.842,0.343,1.371,1.003,1.795,1.643
				c0.818-0.506,1.714-0.881,2.638-1.089c2.156-0.497,4.354-0.352,6.438,0.029c1.522,0.299,3.011,0.822,4.338,1.698
				c0.011,0.007,0.021,0.016,0.032,0.023c0.282-0.097,0.564-0.274,0.855-0.465c0.147-0.096,0.294-0.193,0.443-0.279
				c1.149-0.673,2.6-0.84,3.871-0.453c0.591,0.18,1.129,0.467,1.65,0.745c0.438,0.234,0.851,0.454,1.289,0.613
				c1.452,0.528,3.14,0.301,4.402-0.592c0.148-0.105,0.29-0.218,0.434-0.331c0.301-0.239,0.612-0.486,0.979-0.67
				c0.385-0.194,0.792-0.298,1.186-0.4c0.463-0.119,0.899-0.232,1.246-0.475c0.683-0.48,0.941-1.415,1.19-2.319l0.124-0.441
				c0.734-2.516,2.255-4.702,3.79-6.691c0.176-0.227,0.33-0.446,0.477-0.652c0.599-0.844,1.117-1.573,2.326-1.968
				c0.087-0.028,0.174-0.019,0.255,0.008c-0.221-0.996-0.495-1.988-0.76-3.001c-0.407-1.541-0.688-3.222-0.341-4.89
				c-0.146,0.033-0.289,0.075-0.435,0.106c-0.224,0.048-0.444-0.095-0.492-0.318c-0.048-0.224,0.095-0.444,0.318-0.492l0.001,0
				c0.911-0.194,1.811-0.436,2.705-0.699c-0.039-0.175-0.043-0.353-0.012-0.502c0.052-0.281,0.164-0.512,0.294-0.72
				c0.285-0.427,0.566-0.677,0.702-0.97c0.127-0.275,0.094-0.462-0.099-0.659c-0.204-0.197-0.537-0.327-0.89-0.369
				c-0.375-0.054-0.81-0.053-1.284-0.175c-0.479-0.113-0.961-0.44-1.239-0.854c-0.57-0.835-0.631-1.806-0.569-2.668
				c0.128-1.735,0.712-3.333,0.613-4.87c-0.055-0.723-0.359-1.495-0.893-1.727c-0.523-0.258-1.242,0.052-1.873,0.519
				c-0.331,0.231-0.68,0.498-1.103,0.707c-0.428,0.214-0.958,0.351-1.518,0.197c-0.278-0.076-0.574-0.273-0.736-0.547
				c-0.153-0.262-0.202-0.466-0.265-0.546c-0.049-0.131-0.367-0.181-0.833-0.231c-0.976-0.144-1.781-0.761-2.318-1.493
				c-0.551-0.751-0.82-1.625-0.977-2.475c-0.389-2.614-0.351-5.256,0.101-7.836c-0.562,0.897-1.124,1.794-1.69,2.691
				c-0.755,1.181-1.567,2.358-2.607,3.37c-0.647,0.633-1.425,1.199-2.296,1.561c1.985,0.684,3.797,1.771,5.411,3.032
				c2.077,1.672,3.9,3.578,5.642,5.543c-1.99-1.715-3.92-3.506-6.091-4.925c-2.136-1.443-4.506-2.554-6.982-2.95
				c-2.474-0.383-5.008,0.057-7.553,0.609c-1.277,0.272-2.577,0.54-3.908,0.738c-1.329,0.192-2.669,0.304-4.011,0.337
				c-1.342,0.021-2.686-0.04-4.021-0.179c-1.333-0.143-2.637-0.347-3.921-0.531c-2.564-0.399-5.087-0.472-7.582,0.081
				c-2.614,0.561-5.129,1.674-7.355,3.234c-0.053,0.098-0.143,0.175-0.26,0.205c-0.006,0.001-0.011,0-0.017,0.001
				c-1.879,1.365-3.547,3.045-4.85,5.027c1.045-2.091,2.531-3.961,4.317-5.514c-0.626-2.5-1.367-5.044-2.995-6.957
				c-0.831-0.97-1.892-1.681-3.115-2.094c-1.219-0.431-2.544-0.661-3.85-1.119c-2.678-0.924-4.658-2.947-6.632-4.683
				c-1.977-1.759-4.164-3.271-6.506-4.496c-1.173-0.607-2.379-1.153-3.618-1.612c-1.141-0.43-2.319-0.785-3.499-1.164l3.062,1.889
				c2.35,1.483,4.877,2.754,7.104,4.566c2.214,1.81,4.024,3.944,6.243,5.585c2.191,1.69,4.599,3.163,6.715,5.076
				c1.051,0.956,2.036,2.021,2.789,3.255c0.367,0.616,0.747,1.241,0.929,2.001c0.197,0.735,0.106,1.665-0.459,2.305
				c-0.27,0.32-0.669,0.579-1.127,0.634c-0.45,0.046-0.8-0.053-1.047-0.013c-0.482,0.05-0.877,0.581-1.081,1.171
				c-0.43,1.227-0.408,2.652-0.743,4.077c-0.167,0.723-0.474,1.433-0.937,2.042c-0.457,0.604-1.12,1.14-1.938,1.302
				c-0.416,0.087-0.82,0.032-0.992,0.102c-0.165,0.056-0.253,0.188-0.281,0.465c-0.049,0.528,0.258,1.204,0.434,1.892
				c0.19,0.685,0.376,1.42,0.293,2.223c-0.043,0.398-0.175,0.808-0.406,1.157c-0.229,0.366-0.536,0.604-0.733,0.831
				c-0.21,0.231-0.293,0.411-0.317,0.698c-0.026,0.281,0.023,0.617,0.043,0.992c0.008,0.178,0.016,0.4-0.034,0.627
				c-0.047,0.217-0.127,0.422-0.244,0.615c-0.063,0.101-0.139,0.2-0.228,0.292c0.428,0.167,0.857,0.335,1.28,0.511l0.012,0.005
				c0.211,0.088,0.311,0.33,0.223,0.541c-0.088,0.211-0.33,0.311-0.541,0.223l-0.001,0c-0.204-0.085-0.41-0.166-0.615-0.248
				c0.786,1.804,1.136,3.736,1.305,5.659c0.156-0.36,0.32-0.724,0.522-1.074C256.538,163.637,256.797,163.144,257.435,162.908z
				 M305.572,141.756c1.555-0.924,4.469,0.236,5.611,1.031c1.377,0.958,2.494,2.35,3.228,4.024c0.535,1.221,0.569,2.222,0.102,2.977
				c-0.415,0.671-1.237,1.086-2.146,1.086c-0.004,0-0.008,0-0.012,0c-0.839-0.004-1.608-0.332-2.185-0.617
				c-1.663-0.823-3.151-2.025-4.304-3.478c-0.476-0.598-1.121-1.521-1.24-2.618C304.471,142.729,305.055,142.063,305.572,141.756z
				 M269.386,147.432c0.734-1.675,1.851-3.067,3.227-4.025c1.179-0.82,4.037-1.966,5.612-1.031c0.517,0.306,1.101,0.973,0.945,2.405
				c-0.12,1.099-0.765,2.021-1.24,2.619c-1.152,1.452-2.64,2.655-4.304,3.478c-0.578,0.285-1.348,0.613-2.185,0.617
				c-0.004,0-0.008,0-0.012,0c-0.909,0-1.731-0.415-2.146-1.086C268.817,149.654,268.852,148.653,269.386,147.432z"/>
			<path style="fill:#B37148;" d="M271.431,150.667c0.002,0,0.005,0,0.008,0c0.667-0.003,1.323-0.286,1.821-0.531
				c1.555-0.769,2.946-1.893,4.022-3.25c0.654-0.823,0.992-1.519,1.065-2.193c0.087-0.809-0.091-1.334-0.544-1.603
				c-1.08-0.643-3.516,0.163-4.717,0.999c-1.25,0.87-2.268,2.142-2.941,3.677c-0.419,0.956-0.472,1.699-0.157,2.209
				C270.249,150.395,270.815,150.667,271.431,150.667z"/>
			<path style="fill:#361D0D;" d="M301.684,183.026c0.131-0.056,0.258-0.118,0.372-0.193c0.53-0.377,1.007-0.909,1.348-1.494
				c0.703-1.173,0.947-2.621,0.681-3.945c-0.243-1.35-1.126-2.417-2.301-3.159c-1.171-0.739-2.547-1.197-3.937-1.437
				c-2-0.326-4.045-0.534-5.969-0.106c-0.961,0.198-1.864,0.581-2.663,1.115c-0.777,0.545-1.437,1.277-1.894,2.124
				c-0.928,1.672-1.064,3.848-0.01,5.451c0.791,1.256,2.182,2.173,3.65,2.355c-0.57-0.504-1.033-1.126-1.321-1.817
				c-0.211-0.561-0.438-1.112-0.356-1.848c0.043-0.362,0.269-0.747,0.546-0.964c0.276-0.229,0.555-0.358,0.831-0.479
				c0.561-0.23,1.176-0.394,1.842-0.319c0.668,0.053,1.341,0.496,1.656,1.094c0.327,0.593,0.396,1.201,0.484,1.75
				c0.081,0.548,0.161,1.088,0.363,1.492c0.211,0.421,0.538,0.649,0.903,0.586c0.377-0.056,0.79-0.388,1.095-0.771
				c0.65-0.808,1.117-1.901,2.085-2.718c0.245-0.201,0.542-0.387,0.902-0.472c0.365-0.09,0.761-0.03,1.084,0.12
				c0.652,0.309,1.07,0.905,1.215,1.579c0.141,0.713-0.107,1.375-0.474,1.9C301.774,182.925,301.727,182.973,301.684,183.026z"/>
			<path style="fill:#E09679;" d="M253.743,155.832c0.014-0.417,0.249-0.902,0.526-1.176c0.266-0.293,0.521-0.496,0.659-0.731
				c0.155-0.235,0.246-0.507,0.28-0.802c0.067-0.596-0.078-1.254-0.263-1.908l-0.296-1.003c-0.105-0.341-0.199-0.752-0.161-1.18
				c0.019-0.216,0.071-0.452,0.213-0.677c0.138-0.225,0.373-0.407,0.619-0.483c0.504-0.138,0.82-0.051,1.088-0.125
				c1.157-0.24,1.976-1.501,2.258-2.742c0.319-1.295,0.283-2.73,0.779-4.162c0.135-0.36,0.317-0.713,0.593-1.026
				c0.268-0.311,0.677-0.577,1.138-0.626c0.451-0.04,0.797,0.062,1.046,0.025c0.242-0.027,0.476-0.164,0.658-0.374
				c0.381-0.428,0.469-1.046,0.305-1.652c-0.145-0.61-0.497-1.201-0.85-1.779c-0.714-1.154-1.654-2.16-2.674-3.076
				c-2.052-1.835-4.451-3.284-6.7-4.992c-2.3-1.683-4.161-3.842-6.295-5.556c-2.13-1.725-4.655-2.954-7.024-4.464
				c-2.384-1.479-4.765-2.954-7.101-4.488c-0.014-0.009-0.022-0.023-0.035-0.034c-1.042-0.576-2.01-1.255-2.954-1.93
				c-1.087-0.775-2.166-1.547-3.326-2.124c-1.157-0.577-2.419-0.96-3.682-0.985c-1.261-0.021-2.5,0.403-3.426,1.247
				c-0.935,0.832-1.566,1.996-1.898,3.224c-0.7,2.494,0.047,5.152,1.15,7.509c0.556,1.194,1.212,2.352,1.875,3.509
				c0.665,1.156,1.341,2.304,2.047,3.434c2.811,4.523,5.986,8.834,9.708,12.63c0.922,0.951,1.921,1.868,2.772,2.958
				c0.88,1.076,1.452,2.403,1.871,3.671c0.436,1.27,0.822,2.535,1.526,3.586c0.693,1.058,1.724,1.857,2.85,2.488
				c2.275,1.262,4.933,1.883,7.339,3.235c0.588,0.338,1.189,0.763,1.696,1.157c0.514,0.378,1.075,0.708,1.655,1.001
				c0.397,0.198,0.812,0.377,1.233,0.552c0.082-0.028,0.171-0.038,0.26-0.01c0.009,0.003,0.018,0.006,0.026,0.01
				c0.098,0.039,0.251-0.029,0.393-0.258c0.065-0.105,0.115-0.23,0.141-0.355c0.028-0.116,0.025-0.247,0.018-0.417
				C253.77,156.612,253.709,156.251,253.743,155.832z"/>
			<path style="fill:#E09679;" d="M316.609,134.246c0.438,0.596,1.068,1.053,1.753,1.149c0.181,0.027,0.4,0.037,0.656,0.098
				c0.247,0.051,0.585,0.215,0.768,0.503c0.169,0.267,0.216,0.478,0.282,0.571c0.053,0.084,0.125,0.135,0.245,0.173
				c0.544,0.162,1.206-0.291,1.88-0.787c0.345-0.244,0.744-0.501,1.207-0.65c0.453-0.155,1.035-0.186,1.531,0.053
				c0.503,0.229,0.842,0.665,1.044,1.096c0.209,0.438,0.306,0.895,0.345,1.354c0.095,1.811-0.521,3.418-0.625,4.996
				c-0.067,0.772,0.026,1.565,0.409,2.118c0.192,0.273,0.439,0.445,0.767,0.53c0.332,0.09,0.735,0.098,1.182,0.158
				c0.464,0.064,0.958,0.22,1.359,0.601c0.198,0.189,0.369,0.466,0.411,0.775c0.052,0.306-0.03,0.614-0.145,0.848
				c-0.229,0.462-0.584,0.779-0.75,1.048c-0.13,0.198-0.187,0.395-0.183,0.537c1.467-0.467,2.908-1.017,4.305-1.665
				c1.246-0.582,2.464-1.228,3.636-1.945c1.169-0.717,2.29-1.504,3.239-2.457c1.943-1.879,2.854-4.56,3.194-7.252
				c0.358-2.71,0.175-5.494,0.296-8.3c0.066-2.823,0.734-5.628,1.635-8.267c0.904-2.649,1.87-5.247,2.803-7.871l2.822-7.855
				l1.411-3.927c0.465-1.312,0.977-2.598,1.09-3.908c0.058-0.649,0.011-1.308-0.197-1.888c-0.214-0.586-0.582-1.128-1.056-1.517
				c-0.475-0.385-1.06-0.614-1.636-0.545c-0.581,0.053-1.151,0.386-1.733,0.749c-2.361,1.469-4.72,2.941-7.043,4.46
				c-4.644,3.037-9.169,6.273-13.221,10.042c-2.02,1.888-3.911,3.906-5.637,6.065c-1.731,2.155-3.31,4.435-4.833,6.753
				c-0.502,0.766-0.991,1.542-1.482,2.316c-0.002,0.011,0.001,0.021-0.002,0.032c-0.858,3.136-1.04,6.495-0.557,9.689
				C315.922,132.899,316.169,133.652,316.609,134.246z"/>
			<path style="fill:#B37148;" d="M267.656,192.282c1.717,1.463,4.038,2.184,5.724,3.948c0.819,0.857,1.463,2.004,1.479,3.246
				c0.013,0.598-0.022,1.149,0.205,1.618c0.214,0.477,0.608,0.876,1.048,1.214c0.898,0.673,1.94,1.19,2.939,1.787
				c0.995,0.592,2.016,1.274,2.695,2.302c0.334,0.506,0.561,1.102,0.671,1.68c0.121,0.577,0.207,1.125,0.463,1.604
				c0.495,0.979,1.422,1.687,2.322,2.402c0.453,0.36,0.912,0.731,1.331,1.156c0.423,0.425,0.773,0.903,1.123,1.359
				c0.349,0.457,0.701,0.901,1.115,1.263c0.408,0.365,0.896,0.63,1.416,0.853c1.047,0.419,2.175,0.831,3.199,1.378l3.065,1.628
				c2.016,1.047,4.246,1.881,6.487,1.635c1.104-0.127,2.168-0.55,3.055-1.224c0.897-0.664,1.639-1.534,2.251-2.487
				c1.221-1.907,2.07-4.096,2.8-6.243c0.158-0.539,0.261-1.082,0.26-1.626c0.001-0.549-0.086-1.127-0.066-1.744
				c0.042-1.266,0.658-2.378,1.27-3.357c2.504-3.887,4.761-7.911,6.75-12.073c0.998-2.078,1.931-4.187,2.8-6.322l0.639-1.609
				c0.215-0.542,0.446-1.109,0.807-1.635c0.346-0.521,0.879-1.012,1.525-1.229c0.585-0.215,1.327-0.214,1.925,0.172
				c0.037-0.098,0.08-0.196,0.115-0.294c0.635-1.586,0.551-3.282,0.324-5.004c-0.25-1.722-0.352-3.517-0.294-5.265
				c0.085-3.507,0.565-6.98,0.198-10.405c-0.045-0.458-0.116-0.912-0.201-1.364c-0.041,0.037-0.09,0.067-0.146,0.085
				c-0.95,0.309-1.352,0.876-1.908,1.659c-0.153,0.215-0.315,0.442-0.497,0.679c-1.484,1.924-2.955,4.033-3.649,6.417l-0.121,0.429
				c-0.274,0.996-0.586,2.125-1.513,2.776c-0.47,0.33-1.001,0.467-1.516,0.599c-0.367,0.095-0.714,0.184-1.02,0.338
				c-0.291,0.146-0.556,0.357-0.837,0.579c-0.155,0.122-0.309,0.245-0.469,0.358c-0.952,0.673-2.11,1.024-3.268,1.024
				c-0.644,0-1.287-0.108-1.896-0.33c-0.493-0.179-0.953-0.424-1.397-0.661c-0.507-0.271-0.987-0.527-1.5-0.683
				c-1.058-0.322-2.257-0.182-3.213,0.376c-0.137,0.08-0.272,0.169-0.408,0.257c-0.179,0.117-0.371,0.235-0.57,0.343
				c0.36,0.314,0.694,0.663,0.98,1.058c0.486,0.666,0.808,1.458,0.941,2.249c0.282,1.595-0.044,3.26-0.895,4.619
				c-0.427,0.684-0.967,1.276-1.659,1.746c-0.756,0.464-1.587,0.577-2.39,0.551c-0.228-0.008-0.407-0.199-0.4-0.427
				c0.005-0.156,0.096-0.288,0.225-0.355l0.012-0.006l0.033-0.017c0.886-0.415,1.627-1.334,1.46-2.181
				c-0.082-0.414-0.382-0.826-0.75-0.988c-0.362-0.177-0.735-0.076-1.115,0.24c-0.77,0.633-1.231,1.657-1.963,2.595
				c-0.354,0.423-0.794,0.833-1.421,1.011c0.003,2.538,0.228,5.153,1.537,7.275c0.329,0.54,0.725,1.027,1.204,1.372
				c0.472,0.344,1.061,0.527,1.682,0.636c1.258,0.23,2.529,0.171,3.64-0.396c1.124-0.546,2.054-1.451,2.866-2.451
				c0.815-1.004,1.537-2.122,2.372-3.181c0.826-1.059,1.715-2.07,2.663-3.023l0.721-0.705c0.234-0.243,0.516-0.431,0.702-0.728
				c0.333-0.64,0.906-1.031,1.639-1.182c0.25-0.051,0.495,0.109,0.546,0.36c0.021,0.101,0.007,0.201-0.034,0.288l-0.002,0.005
				c-0.31,0.666-0.757,1.123-1.417,1.36c-0.311,0.141-0.52,0.397-0.769,0.609l-0.71,0.675c-0.934,0.913-1.814,1.883-2.632,2.903
				c-0.823,1.01-1.558,2.115-2.428,3.158c-0.865,1.039-1.897,2.013-3.17,2.63c-0.633,0.306-1.335,0.511-2.042,0.569
				c-0.707,0.059-1.404,0-2.082-0.12c-0.678-0.121-1.392-0.336-1.997-0.777c-0.597-0.436-1.044-1.006-1.402-1.595
				c-0.762-1.228-1.186-2.574-1.424-3.95c-0.031,0.159-0.056,0.319-0.09,0.477c-0.34,1.474-0.72,2.965-1.558,4.321
				c-0.419,0.666-0.999,1.275-1.688,1.684c-0.685,0.415-1.415,0.682-2.156,0.895c-1.485,0.421-3.083,0.51-4.603,0.196
				c-3.067-0.594-5.695-2.51-7.635-4.852c-0.974-1.182-1.758-2.462-2.691-3.578c-0.476-0.537-0.924-1.135-1.61-1.401
				c-0.334-0.135-0.608-0.326-0.888-0.512c-0.28-0.187-0.552-0.384-0.836-0.621l-0.018-0.015c-0.185-0.155-0.21-0.431-0.055-0.616
				c0.085-0.101,0.207-0.154,0.329-0.157c0.426-0.006,0.839,0.105,1.21,0.283c0.371,0.179,0.716,0.411,0.968,0.738
				c0.486,0.661,1.081,1.146,1.554,1.761c0.972,1.189,1.743,2.477,2.661,3.61c1.822,2.244,4.306,4.086,7.15,4.647
				c1.41,0.29,2.879,0.208,4.267-0.184c0.692-0.198,1.378-0.454,1.972-0.815c0.597-0.357,1.075-0.86,1.453-1.454
				c0.743-1.198,1.104-2.662,1.414-4.089c0.271-1.338,0.411-2.702,0.427-4.065c-0.116-0.041-0.227-0.091-0.327-0.16
				c-0.313-0.21-0.526-0.497-0.675-0.79c-0.294-0.605-0.357-1.195-0.444-1.745c-0.082-0.547-0.163-1.076-0.386-1.466
				c-0.218-0.389-0.579-0.633-1.031-0.678c-0.451-0.055-0.957,0.065-1.422,0.259c-0.496,0.213-0.85,0.443-0.882,0.807
				c-0.061,0.385,0.111,0.933,0.3,1.4c0.397,0.946,1.122,1.744,2.046,2.148l0.015,0.006c0.207,0.091,0.301,0.332,0.211,0.539
				c-0.058,0.133-0.181,0.219-0.314,0.24l-0.015,0.002c-2.28,0.432-4.587-0.776-5.818-2.644c-1.301-1.922-1.167-4.498-0.123-6.449
				c0.458-0.882,1.109-1.659,1.89-2.29c-0.416-0.578-0.867-1.075-1.434-1.27c-0.742-0.279-1.306,0.034-1.831,0.763
				c-0.537,0.722-1.096,1.528-1.847,2.199c-0.377,0.332-0.802,0.647-1.304,0.848c-0.487,0.211-1.08,0.292-1.546,0.291
				c-0.471,0.009-0.861,0.031-1.117,0.175c-0.269,0.132-0.559,0.505-1.005,0.84c-0.862,0.636-1.949,0.921-3.007,0.795
				c-1.087-0.128-1.992-0.729-2.726-1.32c-0.743-0.597-1.406-1.216-2.141-1.614c-0.374-0.202-0.726-0.317-1.185-0.41
				c-0.446-0.088-1.005-0.243-1.44-0.536c-0.894-0.574-1.451-1.389-2.025-2.088c-0.556-0.727-1.193-1.263-1.966-1.792
				c-0.742-0.534-1.581-1.081-2.133-1.967c-0.279-0.432-0.418-0.974-0.477-1.43c-0.067-0.468-0.158-0.847-0.38-1.195
				c-0.443-0.697-1.221-1.192-2.016-1.603c-0.197-0.099-0.391-0.184-0.581-0.236c-0.19-0.05-0.391-0.074-0.488-0.032
				c-0.257,0.082-0.531,0.45-0.727,0.825c-0.4,0.754-0.624,1.589-1.038,2.466c0.004,0.078,0.009,0.156,0.012,0.233l0.256,8.546
				c0.035,0.7,0.103,1.388,0.261,2.048c0.157,0.661,0.402,1.308,0.684,1.95c0.334,0.754,0.707,1.519,1.046,2.306
				c0.064,0.012,0.126,0.033,0.181,0.076c0.002,0.001,0.008,0.007,0.01,0.008C261.998,185.084,264.091,189.42,267.656,192.282z
				 M296.632,204.757c1.205-0.015,2.408-0.121,3.608-0.309c1.201-0.191,2.394-0.467,3.625-0.79
				c-1.009,0.779-2.185,1.334-3.414,1.703c-1.231,0.371-2.521,0.553-3.811,0.554c-2.569-0.005-5.183-0.684-7.253-2.164
				C291.822,204.418,294.214,204.795,296.632,204.757z"/>
			<path style="fill:#B37148;" d="M332.104,272.16c-0.481-1.446-1.086-2.858-1.971-4.044c-0.861-1.2-2.082-2.053-3.441-2.73
				c-1.363-0.678-2.789-1.256-4.244-1.679c-2.884-0.857-6.054-1.063-8.8,0.008c-1.345,0.532-2.504,1.5-2.923,2.825
				c-0.213,0.648-0.25,1.352-0.041,1.969c0.199,0.618,0.666,1.174,1.187,1.736c4.278,4.605,7.67,10.043,9.855,15.937
				c0.553,1.471,1.014,2.975,1.417,4.494c0.429,1.514,0.598,3.103,1.389,4.281c0.193,0.279,0.444,0.568,0.68,0.728
				c0.244,0.154,0.399,0.154,0.655,0.018c0.25-0.144,0.488-0.411,0.747-0.706c0.254-0.288,0.505-0.579,0.749-0.876
				c0.948-1.151,1.811-2.371,2.588-3.643c-0.065-1.007-0.084-2.034,0.115-3.071c0.336-1.802,1.165-3.399,1.875-4.971
				c0.718-1.571,1.336-3.168,1.313-4.848c-0.003-0.295,0-0.608,0.01-0.927c-0.003-0.01-0.009-0.017-0.011-0.027
				C332.929,275.118,332.585,273.612,332.104,272.16z"/>
			<path style="fill:#B37148;" d="M306.515,146.265c1.077,1.358,2.468,2.482,4.022,3.25c0.497,0.246,1.153,0.528,1.821,0.531
				c0.003,0,0.006,0,0.009,0c0.615,0,1.181-0.272,1.442-0.694c0.315-0.509,0.262-1.253-0.157-2.209
				c-0.673-1.534-1.691-2.806-2.942-3.677v0c-0.897-0.624-2.482-1.23-3.677-1.23c-0.405,0-0.765,0.069-1.039,0.232
				c-0.454,0.269-0.632,0.794-0.544,1.604C305.522,144.744,305.861,145.441,306.515,146.265z"/>
			<path style="fill:#B37148;" d="M293.862,264.708c-1.82-1.181-4.023-1.702-6.196-1.737c-2.189-0.035-4.363,0.398-6.488,0.962
				c-2.126,0.578-4.255,1.194-6.207,2.181c-1.956,0.968-3.667,2.423-4.755,4.311c-1.095,1.877-1.669,4.039-1.803,6.207
				c-0.277,4.379,0.944,8.666,1.731,13.027c0.389,2.19,0.756,4.398,0.661,6.68c-0.054,1.103-0.138,2.202,0.06,3.213
				c0.102,0.496,0.291,0.964,0.62,1.228c0.324,0.272,0.8,0.316,1.291,0.257c0.965-0.154,1.787-0.9,2.485-1.708
				c0.715-0.815,1.352-1.702,1.934-2.627c1.166-1.852,2.116-3.846,3.133-5.816c1.982-3.991,4.69-7.586,7.641-10.886
				c1.476-1.655,3.004-3.259,4.537-4.854c1.477-1.617,3.283-3.081,3.912-5.149c0.315-1.016,0.244-2.125-0.3-3.038
				C295.591,266.041,294.76,265.301,293.862,264.708z"/>
			<path style="fill:#A86236;" d="M255.614,379.066l-0.204,9.345c1.176-0.838,2.265-1.809,3.332-2.825
				c1.213-1.137,2.362-2.288,3.378-3.578c2.003-2.552,3.608-5.573,3.783-8.827c0.111-1.613-0.165-3.228-0.646-4.789
				c-0.484-1.562-1.084-3.099-1.866-4.526c-0.777-1.429-1.767-2.734-2.945-3.845c-1.085-1.025-2.368-1.824-3.778-2.209
				C256.077,364.876,255.794,371.975,255.614,379.066z"/>
			<path style="fill:#361D0D;" d="M360.122,424.273c-0.74-0.247-1.499-0.356-2.294-0.437c-0.789-0.086-1.626-0.174-2.413-0.507
				c-1.554-0.674-2.66-1.912-4.15-2.281c-1.479-0.417-3.093-0.32-4.702-0.477c-0.805-0.074-1.632-0.188-2.422-0.515
				c-0.392-0.164-0.772-0.388-1.098-0.684c-0.34-0.303-0.559-0.661-0.792-0.975c-3.803-5.193-6.505-11.115-8.419-17.228
				c-1.926-6.125-3.015-12.473-3.73-18.829c-0.715-6.363-1.012-12.753-1.366-19.127l-1.039-19.13l-1.039-19.13l-0.519-9.565
				c-0.039-0.671-0.073-1.342-0.105-2.014c-0.056-0.091-0.077-0.202-0.05-0.314v0l0.028-0.117c-0.105-2.375-0.148-4.753-0.025-7.14
				c0.26,1.611,0.443,3.226,0.581,4.844l1.879-7.754c0.787-3.391,1.812-6.768,1.656-10.179c-0.012-0.288-0.032-0.579-0.053-0.872
				c-0.635,0.969-1.304,1.916-2.039,2.813c-0.249,0.305-0.506,0.605-0.767,0.901c-0.256,0.284-0.529,0.625-0.954,0.878
				c-0.213,0.124-0.484,0.223-0.776,0.214c-0.295-0.004-0.564-0.12-0.768-0.255c-0.407-0.282-0.664-0.603-0.918-0.957
				c-0.956-1.456-1.087-3.087-1.519-4.542c-0.399-1.489-0.854-2.964-1.401-4.407c-2.159-5.779-5.483-11.122-9.766-15.563
				c-0.534-0.567-1.131-1.212-1.432-2.085c-0.301-0.861-0.252-1.793,0.009-2.621c0.259-0.829,0.751-1.592,1.378-2.178
				c0.623-0.592,1.361-1.031,2.126-1.35c3.099-1.247,6.501-0.931,9.535-0.035c1.529,0.466,2.991,1.082,4.407,1.808
				c1.41,0.719,2.811,1.715,3.753,3.078c0.959,1.332,1.566,2.836,2.043,4.344c0.262,0.836,0.477,1.681,0.669,2.528
				c0.195-0.69,0.405-1.344,0.503-2.014c0.269-1.657,0.094-3.372-0.337-5.017c-0.437-1.65-1.116-3.239-1.885-4.783
				c-0.765-1.546-1.678-3.023-2.519-4.569c-0.838-1.54-1.608-3.173-1.961-4.952c-0.186-0.873-0.214-1.831-0.188-2.679
				c0.005-0.868-0.003-1.734-0.041-2.596c-0.076-1.722-0.271-3.438-0.729-5.081c-0.864-3.297-3.228-6.082-4.076-9.622
				c-0.211-0.875-0.316-1.788-0.256-2.704c0.052-0.92,0.309-1.814,0.634-2.642c0.684-1.651,1.422-3.18,1.95-4.833
				c1.115-3.268,1.74-6.696,1.982-10.149c0.524-6.929-0.38-13.859-1.445-20.757c-0.21-1.767-0.15-3.564,0.177-5.313
				c0.161-0.875,0.391-1.736,0.687-2.576c0.163-0.473,0.348-0.93,0.532-1.382c-0.028-0.012-0.057-0.02-0.082-0.039
				c-0.001-0.001-0.003-0.003-0.004-0.003c-0.323-0.249-0.815-0.281-1.268-0.117c-0.46,0.155-0.828,0.481-1.125,0.916
				c-0.575,0.864-0.911,2.026-1.372,3.084c-0.885,2.147-1.823,4.272-2.847,6.356c-2.042,4.168-4.36,8.209-6.905,12.078
				c-0.613,0.956-1.162,1.96-1.204,3.038c-0.026,0.541,0.054,1.115,0.049,1.723c-0.004,0.615-0.127,1.219-0.3,1.787
				c-0.781,2.213-1.612,4.384-2.896,6.377c-0.639,0.988-1.423,1.907-2.391,2.62c-0.956,0.722-2.121,1.183-3.315,1.315
				c-2.418,0.254-4.731-0.642-6.777-1.708l-3.059-1.637c-1.02-0.546-2.069-0.931-3.168-1.374c-0.541-0.234-1.084-0.527-1.539-0.937
				c-0.456-0.403-0.824-0.874-1.175-1.336c-0.351-0.463-0.687-0.922-1.08-1.318c-0.392-0.401-0.834-0.761-1.286-1.119
				c-0.892-0.714-1.881-1.447-2.449-2.557c-0.292-0.551-0.386-1.166-0.503-1.716c-0.108-0.558-0.305-1.059-0.605-1.521
				c-0.605-0.922-1.564-1.576-2.544-2.156c-0.984-0.59-2.028-1.102-2.986-1.818c-0.471-0.364-0.925-0.808-1.189-1.393
				c-0.28-0.595-0.231-1.246-0.257-1.793c-0.028-1.1-0.605-2.11-1.378-2.903c-1.561-1.618-3.879-2.322-5.724-3.832
				c-1.868-1.457-3.341-3.304-4.792-5.098c-1.196-1.476-2.405-2.936-3.777-4.194c0.016,0.05,0.036,0.097,0.051,0.147
				c0.873,2.792,1.025,5.697,1.235,8.529c0.103,1.421,0.22,2.829,0.427,4.229l0.671,4.22c0.455,2.822,0.625,5.755,0.216,8.614
				c-0.192,1.525-0.53,3.026-0.975,4.495c0.061,0.11,0.078,0.244,0.025,0.367c-0.104,0.234-0.23,0.45-0.366,0.658
				c-0.321,0.934-0.67,1.858-1.075,2.757c-1.185,2.624-2.729,5.078-4.565,7.285c-0.077,0.092-0.214,0.105-0.306,0.028
				c-0.09-0.075-0.104-0.209-0.032-0.301c2.018-2.577,3.66-5.452,4.838-8.496c-0.571,0.486-1.206,0.885-1.812,1.24
				c-0.641,0.378-1.283,0.721-1.888,1.098c-0.594,0.387-1.174,0.796-1.71,1.268c-2.176,1.858-3.828,4.281-5.54,6.658
				c-1.683,2.411-3.62,4.71-5.806,6.712c-2.172,2.022-4.583,3.786-7.165,5.239c-0.186,0.105-0.422,0.039-0.527-0.147
				c-0.103-0.182-0.039-0.414,0.138-0.521c2.462-1.498,4.778-3.234,6.872-5.207c-6.293,0.296-12.225,4.437-14.847,10.151
				c-0.697,1.485-1.083,3.049-1.378,4.702c-0.163,0.823-0.339,1.662-0.624,2.485c-0.281,0.827-0.697,1.612-1.191,2.324
				c-0.993,1.433-2.281,2.585-3.585,3.646l-3.912,3.131c-10.287,8.489-19.204,18.539-27.115,29.271
				c-7.917,10.748-14.888,22.164-21.56,33.735l-4.963,8.708l-2.462,4.366c-0.809,1.449-1.569,2.932-2.32,4.42
				c-2.97,5.974-5.762,12.049-8.505,18.137l-0.014,0.028c-3.514,6.595-7.066,13.176-9.922,20.057
				c-2.868,6.87-4.888,14.086-5.848,21.469c-0.231,1.844-0.46,3.697-0.583,5.546c-0.123,1.851-0.159,3.707-0.082,5.557
				c0.149,3.695,0.758,7.385,2.056,10.835c1.274,3.45,3.298,6.62,5.962,9.146c2.656,2.514,5.977,4.366,9.566,4.991
				c1.781,0.332,3.632,0.288,5.464,0.133c1.874-0.154,3.75-0.262,5.62-0.335c3.743-0.15,7.484-0.233,11.224-0.292l22.43-0.245
				c1.864-0.027,3.742-0.045,5.58-0.148c1.847-0.126,3.723-0.283,5.581-0.441l5.588-0.466c1.861-0.146,3.722-0.322,5.618-0.375
				c1.889-0.059,3.795-0.051,5.696,0.186c0.949,0.116,1.899,0.272,2.835,0.512c0.435,0.104,0.858,0.198,1.334,0.282
				c0.457,0.084,0.921,0.185,1.294,0.197c0.371,0.004,0.725-0.08,1.039-0.285c0.316-0.203,0.588-0.506,0.728-0.843
				c0.139-0.315,0.134-0.742,0.06-1.155c-0.078-0.416-0.234-0.833-0.423-1.245c-0.753-1.664-1.859-3.185-3.238-4.454
				c1.545,1.061,2.855,2.502,3.8,4.169c0.341,0.639,0.695,1.365,0.7,2.192l3.123-0.038l1.593-0.034
				c0.528-0.026,1.016-0.089,1.291-0.377c0.288-0.283,0.394-0.775,0.371-1.255c-0.035-0.484-0.15-0.989-0.34-1.455
				c-0.372-0.943-0.995-1.788-1.718-2.528c-1.458-1.49-3.283-2.598-5.221-3.39c-1.951-0.785-4.008-1.313-6.093-1.397
				c-0.904-0.058-1.814-0.05-2.728-0.022c-0.171,0.011-0.335,0.019-0.481,0.023c-0.003,0-0.007,0-0.009,0
				c-0.017,0-0.031-0.007-0.047-0.009c-1.167,0.048-2.341,0.129-3.521,0.183l-6.837,0.259c-4.557,0.169-9.118,0.312-13.683,0.336
				c-4.563,0.026-9.135-0.081-13.69-0.348c-1.097-0.064-2.198-0.134-3.298-0.235c-0.135,0.006-0.27,0.021-0.405,0.026
				c-0.005,0-0.01,0-0.015,0c-0.099,0-0.188-0.039-0.259-0.098c-0.957-0.1-1.912-0.221-2.864-0.394
				c-2.262-0.411-4.52-1.053-6.57-2.166c-0.515-0.261-1.044-0.596-1.477-1.046c-0.438-0.449-0.746-1.026-0.926-1.601
				c-0.172-0.575-0.322-1.13-0.36-1.763c-0.03-0.618,0.077-1.254,0.323-1.829c0.494-1.159,1.471-2.022,2.53-2.569
				c1.064-0.558,2.2-0.871,3.308-1.158c4.462-1.133,9.011-1.691,13.529-2.292c4.523-0.578,9.033-1.171,13.473-2.059
				c2.22-0.442,4.413-0.99,6.575-1.638c1.077-0.338,2.163-0.666,3.152-1.119c0.421-0.19,0.82-0.417,1.193-0.672
				c-1.097,0.284-2.235,0.407-3.366,0.315c-0.228-0.018-0.398-0.218-0.379-0.446c0.012-0.148,0.1-0.271,0.223-0.335l0.008-0.004
				l0.01-0.005c2.124-1.098,4.216-2.249,6.205-3.543c1.991-1.289,3.876-2.733,5.553-4.386c1.682-1.639,3.143-3.514,4.253-5.578
				c0.847-1.593,1.494-3.297,1.859-5.061c-0.406,0.359-0.877,0.646-1.393,0.829c-0.215,0.076-0.452-0.036-0.528-0.252
				c-0.029-0.081-0.031-0.164-0.011-0.241l0.003-0.013l0.001-0.003c0.945-3.434,1.316-7.024,1.226-10.589
				c-0.107-3.567-0.689-7.119-1.776-10.506c-0.007-0.023-0.004-0.046-0.008-0.069c-0.111-0.292-0.207-0.592-0.265-0.907
				c-0.042-0.225,0.107-0.441,0.332-0.482c0.225-0.042,0.441,0.107,0.482,0.332c0.001,0.003,0.002,0.009,0.002,0.012
				c0.043,0.275,0.121,0.54,0.213,0.801c0.007,0.014,0.019,0.024,0.024,0.039c0.026,0.068,0.047,0.138,0.072,0.207
				c0.545,1.321,1.632,2.471,2.648,3.62c1.285,1.467,2.555,2.955,3.675,4.562c0.595,0.84,1.155,1.715,1.67,2.618
				c0.023-0.082,0.066-0.16,0.138-0.216c1.909-1.47,3.713-3.1,5.375-4.842c0.096-6.532,0.296-13.059,0.465-19.584
				c0.209-7.997,0.385-16.002,0.258-23.985c-0.05-1.992-0.155-3.978-0.388-5.946c-0.117-0.984-0.269-1.962-0.461-2.931
				c-0.18-0.97-0.46-1.912-0.636-2.95c-0.08-0.517-0.127-1.055-0.076-1.603c0.046-0.55,0.212-1.086,0.427-1.584
				c0.45-0.998,1.157-1.794,1.862-2.52c1.404-1.44,2.998-2.692,3.482-4.57l0.001-0.006c0.03-0.116,0.148-0.186,0.264-0.156
				c0.104,0.027,0.171,0.125,0.162,0.229c-0.091,1.063-0.62,2.044-1.249,2.857c-0.62,0.835-1.376,1.513-2.039,2.241
				c-0.662,0.721-1.316,1.445-1.683,2.286c-0.178,0.418-0.314,0.851-0.351,1.3c-0.042,0.45-0.003,0.916,0.07,1.387
				c0.158,0.937,0.445,1.919,0.633,2.916c0.198,0.994,0.355,1.994,0.475,2.997c0.24,2.007,0.348,4.021,0.4,6.029
				c0.136,8.023-0.033,16.027-0.234,24.032c-0.199,8.003-0.454,16.001-0.494,23.997c-0.075,7.995,0.07,15.991,0.617,23.963
				c0.007,0.1-0.025,0.199-0.079,0.275l-0.016,0.023c-1.754,2.427-2.994,5.222-3.619,8.144c-0.155,0.728-0.266,1.453-0.249,2.16
				c0.013,0.702,0.184,1.389,0.435,2.08c0.514,1.4,1.187,2.734,1.928,4.057c0.734,1.326,1.532,2.643,2.187,4.063
				c0.67,1.396,1.151,2.975,1.342,4.502c0.479,2.984,1.245,5.926,2.028,8.874c0.2,0.741,0.374,1.471,0.637,2.133
				c0.256,0.662,0.634,1.246,1.114,1.784c0.475,0.538,1.035,1.018,1.624,1.475c0.591,0.457,1.197,0.883,1.835,1.226
				c0.638,0.343,1.305,0.604,2.001,0.719c0.698,0.121,1.431,0.12,2.176,0.078c0.747-0.043,1.509-0.122,2.292-0.154
				c0.776-0.05,1.625,0.053,2.309,0.082c0.676,0.018,1.347-0.204,2.036-0.49c0.697-0.292,1.378-0.576,1.81-1.039
				c0.44-0.477,0.599-1.076,0.279-1.601c-0.313-0.537-0.925-1.096-1.421-1.654c-2.088-2.206-4.215-4.322-6.951-5.734
				c1.504,0.346,2.913,1.097,4.156,2.024c1.253,0.924,2.341,2.033,3.399,3.14l0.787,0.836c0.262,0.281,0.546,0.583,0.77,0.976
				c0.059,0.101,0.11,0.213,0.153,0.33c2.784,1.186,5.924,1.779,8.97,1.632c0.746-0.071,1.62-0.107,2.084-0.54
				c0.471-0.432-0.018-1.185-0.482-1.788c-0.894-1.272-2.011-2.382-3.216-3.383c-2.424-1.998-5.186-3.579-7.667-5.588
				c-1.238-1.003-2.406-2.121-3.366-3.419c-0.959-1.296-1.69-2.751-2.215-4.267c-1.053-3.045-1.323-6.273-1.373-9.442
				c-0.032-3.181,0.112-6.337,0.149-9.5l0.271-18.981c0.26-12.65,0.88-25.354,3.065-37.867c1.091-6.25,2.577-12.44,4.57-18.474
				c1.015-3.01,2.126-5.991,3.431-8.89c1.303-2.899,2.794-5.712,4.444-8.424c0.069-0.114,0.218-0.15,0.332-0.081
				c0.109,0.066,0.146,0.209,0.087,0.321c-1.46,2.8-2.804,5.649-4.071,8.532c-1.227,2.901-2.356,5.842-3.363,8.828
				c-1.985,5.982-3.469,12.127-4.563,18.34c-0.217,1.228-0.407,2.459-0.594,3.691l4.86-0.371c1.805-0.145,3.629-0.244,5.388-0.511
				c1.764-0.254,3.438-0.828,4.979-1.718c1.544-0.878,2.959-1.989,4.328-3.159c5.42-4.822,11.219-9.222,16.34-14.319
				c2.545-2.557,4.908-5.302,6.875-8.318c1.942-3.028,3.403-6.347,4.581-9.76c1.183-3.413,2.095-6.919,2.905-10.448
				c0.843-3.49,1.42-7.216,3.435-10.339l0.006-0.01c0.069-0.106,0.21-0.137,0.316-0.068c0.106,0.068,0.136,0.209,0.069,0.315
				c-1.952,3.059-2.494,6.695-3.323,10.216c-0.793,3.542-1.69,7.072-2.865,10.52c-1.168,3.445-2.638,6.816-4.603,9.907
				c-0.296,0.457-0.617,0.897-0.93,1.342c0.038,0.045,0.068,0.096,0.084,0.156c0,0.001,0,0.001,0.001,0.002l0.003,0.011
				c0.395,1.528,0.594,3.118,0.668,4.678c0.073,1.56,0.15,3.093,0.26,4.641c0.211,3.089,0.492,6.173,0.859,9.246
				c0.741,6.144,1.812,12.252,3.417,18.225c1.57,5.978,3.435,11.978,3.896,18.25c0.128,1.57,0.103,3.132,0.176,4.662
				c0.058,1.541,0.196,3.077,0.365,4.609c0.352,3.063,0.924,6.1,1.7,9.084c0.785,2.981,1.764,5.913,2.961,8.754
				c0.593,1.426,1.175,2.847,2.291,3.781c0.552,0.483,1.198,0.895,1.841,1.356c0.637,0.47,1.259,0.962,1.841,1.497
				c2.341,2.135,4.187,4.741,5.681,7.492c1.493,2.762,2.637,5.678,3.7,8.598l1.571,4.381c0.536,1.453,1.019,2.924,1.874,4.118
				c0.83,1.209,2.145,1.952,3.603,2.21c1.457,0.279,2.992,0.191,4.523,0.057l17.801-1.624c-0.89-1.231-1.838-2.422-2.892-3.531
				c-1.224-1.28-2.604-2.413-4.072-3.442c1.604,0.805,3.091,1.848,4.466,3.025c0.995,0.847,1.911,1.795,2.722,2.827
				c0,0,0.001,0,0.001,0c0.007,0,0.015,0.001,0.022,0.001c1.574,0.147,3.159,0.191,4.742,0.126c0.791-0.028,1.583-0.083,2.369-0.157
				c0.356-0.024,0.705-0.173,0.704-0.326c0.058-0.151-0.241-0.536-0.453-0.85C365.457,427.59,363.108,425.234,360.122,424.273z
				 M296.839,270.122c-0.324,1.113-0.995,2.071-1.725,2.914c-0.74,0.843-1.517,1.623-2.275,2.43
				c-1.525,1.602-3.042,3.208-4.503,4.862c-2.93,3.298-5.567,6.857-7.488,10.825c-0.994,1.968-1.931,3.986-3.107,5.892
				c-0.588,0.952-1.236,1.874-1.972,2.729c-0.722,0.838-1.619,1.733-2.881,1.96c-0.591,0.085-1.307,0.055-1.857-0.386
				c-0.542-0.436-0.768-1.069-0.896-1.64c-0.239-1.167-0.152-2.303-0.115-3.402c0.057-2.146-0.289-4.341-0.683-6.496
				c-0.826-4.298-1.957-8.716-1.513-13.225c0.226-2.232,0.839-4.452,2.005-6.388c1.135-1.96,2.939-3.483,4.946-4.467
				c2.007-1.008,4.159-1.621,6.297-2.197c2.143-0.566,4.355-0.993,6.6-0.967c2.233,0.032,4.51,0.558,6.421,1.789
				c0.94,0.62,1.816,1.386,2.4,2.393C297.099,267.748,297.183,269.029,296.839,270.122z"/>
			<path style="fill:#A86236;" d="M254.985,407.521c0.033,3.14,0.287,6.31,1.294,9.27c0.173,0.508,0.379,1.005,0.6,1.494
				c0.019-0.012,0.034-0.028,0.055-0.037c0.691-0.295,1.378-0.136,1.924-0.038c0.559,0.107,1.065,0.215,1.451,0.085
				c0.38-0.107,0.677-0.467,0.839-0.896c0.163-0.428,0.146-0.922,0.017-1.42c-0.291-0.987-0.849-2.003-1.45-2.922
				c-0.608-0.933-1.327-1.799-2.125-2.619c0.977,0.598,1.848,1.379,2.595,2.27c0.719,0.919,1.392,1.858,1.776,3.046
				c0.1,0.324,0.159,0.68,0.163,1.044l3.146-0.081l1.62-0.042c0.533-0.031,0.993-0.11,1.235-0.418
				c0.259-0.304,0.341-0.81,0.301-1.294c-0.042-0.498-0.178-1.001-0.371-1.476c-0.397-0.953-1.04-1.811-1.785-2.563
				c-1.504-1.509-3.368-2.647-5.361-3.446c-1.888-0.759-3.889-1.231-5.913-1.526C254.99,406.474,254.982,406.998,254.985,407.521z"
				/>
			<path style="fill:#B37148;" d="M210.172,403.309c-1.064,0.546-2.168,0.882-3.253,1.258c-2.185,0.728-4.423,1.277-6.669,1.743
				c-4.499,0.927-9.054,1.403-13.577,1.941c-4.52,0.542-9.053,1.04-13.451,2.094c-1.099,0.267-2.181,0.557-3.147,1.048
				c-0.961,0.479-1.794,1.217-2.214,2.167c-0.208,0.471-0.304,0.985-0.286,1.505c0.02,0.507,0.157,1.067,0.305,1.582
				c0.294,1.038,1.067,1.763,2.07,2.248c1.966,1.067,4.152,1.69,6.365,2.092c0.934,0.169,1.878,0.288,2.826,0.387
				c0.049-0.023,0.103-0.036,0.16-0.038c16.994-0.602,33.817-8.594,45.384-21.446c-0.333,0.284-0.668,0.564-1.007,0.838
				c-0.178,0.144-0.439,0.117-0.583-0.061c-0.144-0.178-0.117-0.439,0.061-0.583c0.005-0.004,0.011-0.009,0.016-0.012
				c3.099-2.272,5.951-4.961,7.98-8.239c1.997-3.259,3.21-7.122,2.8-10.952c-0.37-3.835-2.169-7.383-4.415-10.488
				c-1.126-1.563-2.371-3.044-3.693-4.453c-0.452-0.488-0.915-0.983-1.364-1.498c0.213,0.837,0.392,1.682,0.543,2.531
				c0.3,1.805,0.466,3.629,0.508,5.456c0.069,3.332-0.258,6.684-1.105,9.919c0.495-0.344,0.912-0.806,1.166-1.348l0.003-0.006
				c0.102-0.206,0.351-0.291,0.557-0.189c0.155,0.076,0.241,0.237,0.231,0.399c-0.15,2.465-0.893,4.876-2.039,7.05
				c-1.138,2.182-2.64,4.158-4.373,5.891c-1.744,1.721-3.707,3.195-5.762,4.487c-1.5,0.939-3.054,1.778-4.632,2.555
				c0.975-0.125,1.932-0.384,2.819-0.805l0.013-0.006c0.208-0.096,0.455-0.006,0.552,0.202c0.061,0.132,0.044,0.284-0.027,0.399
				C212.262,402.036,211.226,402.777,210.172,403.309z"/>
			<path style="fill:#A86236;" d="M234.249,409.023c-0.262-0.743-0.461-1.559-0.467-2.387c-0.001-0.063,0.005-0.125,0.006-0.188
				l-5.392-0.091c-1.136-0.019-2.549-0.044-3.703-0.73c-0.684-0.408-1.069-0.988-1.054-1.591c0.013-0.553,0.344-0.987,0.699-1.374
				c2.708-2.949,5.906-4.563,9.292-6.273c1.265-0.639,2.574-1.299,3.871-2.041c0.081-0.047,0.17-0.056,0.256-0.045
				c-0.49-7.41-0.668-14.836-0.623-22.255c0.007-1.078,0.025-2.155,0.039-3.233c-1.52,1.536-3.144,2.983-4.855,4.3
				c-0.075,0.058-0.164,0.086-0.252,0.086c-0.042,0-0.081-0.015-0.121-0.027c1.289,2.376,2.228,4.946,2.463,7.664
				c0.351,3.946-0.836,7.893-2.852,11.241c-1.424,2.38-3.25,4.475-5.265,6.368c0.055,0.016,0.108,0.041,0.155,0.081
				c0.174,0.148,0.195,0.409,0.047,0.584c-10.609,12.482-26.045,20.701-42.066,22.631c4.094,0.21,8.189,0.299,12.289,0.274
				c4.553-0.031,9.106-0.161,13.659-0.351l6.827-0.313c1.165-0.061,2.337-0.153,3.518-0.211c0.027-0.006,0.051-0.017,0.079-0.018
				c3.386-0.078,13.936-2.282,17.844-3.213c-0.664-1.588-1.557-3.11-2.431-4.664C235.458,411.907,234.774,410.495,234.249,409.023z"
				/>
			<path style="fill:#B37148;" d="M269.01,430.245c-2.424-1.998-5.186-3.579-7.667-5.588c-1.238-1.003-2.406-2.121-3.366-3.419
				c-0.959-1.296-1.69-2.751-2.215-4.267c-1.053-3.045-1.323-6.273-1.373-9.442c-0.032-3.181,0.112-6.337,0.149-9.5l0.271-18.981
				c0.203-9.866,0.636-19.764,1.849-29.58c-0.091-0.004-0.183-0.001-0.276,0.011c-1.159,0.156-2.018,1.334-2.602,2.233
				c-0.939,1.443-1.593,3.043-2.352,4.582c-0.368,0.747-0.763,1.484-1.227,2.177c-0.41,0.611-0.847,1.267-1.442,1.714
				c-2.173,1.634-3.229-2.06-3.555-3.521c-0.813-3.652-0.657-7.435-0.577-11.148c0.06-2.78,0.124-5.595-0.439-8.333
				c-0.12-0.586-0.271-1.771-0.833-2.133c-0.564-0.363-1.505,1.603-1.694,1.967c-1.494,2.876-2.023,6.181-2.565,9.341
				c-0.223,1.301-0.411,2.605-0.583,3.912c-0.188,7.264-0.4,14.525-0.437,21.783c-0.075,7.995,0.07,15.991,0.617,23.963
				c0.007,0.1-0.025,0.199-0.079,0.275l-0.016,0.023c-1.754,2.427-2.994,5.222-3.619,8.144c-0.155,0.728-0.266,1.453-0.249,2.16
				c0.013,0.702,0.184,1.389,0.435,2.08c0.514,1.4,1.187,2.734,1.928,4.057c0.734,1.326,1.532,2.643,2.187,4.063
				c0.67,1.396,1.151,2.975,1.342,4.502c0.479,2.984,1.245,5.926,2.028,8.874c0.2,0.741,0.374,1.471,0.637,2.133
				c0.256,0.662,0.634,1.246,1.114,1.784c0.475,0.538,1.035,1.018,1.624,1.475c0.591,0.457,1.197,0.883,1.835,1.226
				c0.638,0.343,1.305,0.604,2.001,0.719c0.698,0.121,1.431,0.12,2.176,0.078c0.747-0.043,1.509-0.122,2.292-0.154
				c0.776-0.05,1.625,0.053,2.309,0.082c0.676,0.018,1.347-0.204,2.036-0.49c0.697-0.292,1.378-0.576,1.81-1.039
				c0.44-0.477,0.599-1.076,0.279-1.601c-0.313-0.537-0.925-1.096-1.421-1.654c-2.088-2.206-4.215-4.322-6.951-5.734
				c1.504,0.346,2.913,1.097,4.156,2.024c1.253,0.924,2.341,2.033,3.399,3.14l0.787,0.836c0.262,0.281,0.546,0.583,0.77,0.976
				c0.059,0.101,0.11,0.213,0.153,0.33c2.784,1.186,5.924,1.779,8.97,1.632c0.746-0.071,1.62-0.107,2.084-0.54
				c0.471-0.432-0.018-1.185-0.482-1.788C271.332,432.356,270.215,431.246,269.01,430.245z"/>
			<path style="fill:#B37148;" d="M367.235,430.164c-1.777-2.574-4.127-4.93-7.112-5.891c-0.74-0.247-1.499-0.356-2.294-0.437
				c-0.789-0.086-1.626-0.174-2.413-0.507c-1.554-0.674-2.66-1.912-4.15-2.281c-1.479-0.417-3.093-0.32-4.702-0.477
				c-0.805-0.074-1.632-0.188-2.422-0.515c-0.392-0.164-0.772-0.388-1.098-0.684c-0.34-0.303-0.559-0.661-0.792-0.975
				c-3.803-5.193-6.505-11.115-8.419-17.228c-1.926-6.125-3.015-12.473-3.73-18.829c-0.715-6.363-1.012-12.753-1.366-19.127
				l-1.039-19.13l-0.253-4.651c-0.392-0.101-0.809-0.118-1.25-0.003c-1.07,0.28-1.744,1.296-2.238,2.216
				c-0.535,0.996-0.911,2.066-1.267,3.136c-0.576,1.734-0.912,3.54-1.446,5.288c-0.518,1.698-1.184,3.965-2.765,4.994
				c-1.021,0.665-2.275,0.387-3.155-0.365c-1.03-0.881-1.628-2.228-2.097-3.468c-0.634-1.674-1.043-3.432-1.378-5.188
				c-0.672-3.526-1.035-7.117-1.233-10.699c-0.151-2.734-0.131-5.483-0.616-8.189c-0.155-0.866-0.342-1.775-0.746-2.565
				c-0.237-0.464-0.592-1-1.183-0.913c-0.621,0.09-1.125,0.619-1.481,1.095c-0.53,0.707-0.915,1.53-1.238,2.349
				c-1.368,3.469-2.026,7.318-2.367,11.022c-0.07,0.757-0.115,1.516-0.155,2.275c0.709,5.003,1.659,9.97,2.97,14.848
				c1.57,5.978,3.435,11.978,3.896,18.25c0.128,1.57,0.103,3.132,0.176,4.662c0.058,1.541,0.196,3.077,0.365,4.609
				c0.352,3.063,0.924,6.1,1.7,9.084c0.785,2.981,1.764,5.913,2.961,8.754c0.593,1.426,1.175,2.847,2.291,3.781
				c0.552,0.483,1.198,0.895,1.841,1.356c0.637,0.47,1.259,0.962,1.841,1.497c2.341,2.135,4.187,4.741,5.681,7.492
				c1.493,2.762,2.637,5.678,3.7,8.598l1.571,4.381c0.536,1.453,1.019,2.924,1.874,4.118c0.83,1.209,2.145,1.952,3.603,2.21
				c1.457,0.279,2.992,0.191,4.523,0.057l17.801-1.624c-0.89-1.231-1.838-2.422-2.892-3.531c-1.224-1.28-2.604-2.413-4.072-3.442
				c1.604,0.805,3.091,1.848,4.466,3.025c0.995,0.847,1.911,1.795,2.722,2.827c0,0,0.001,0,0.001,0c0.007,0,0.015,0.001,0.022,0.001
				c1.574,0.147,3.159,0.191,4.742,0.126c0.791-0.028,1.583-0.083,2.369-0.157c0.356-0.024,0.705-0.173,0.704-0.326
				C367.746,430.863,367.446,430.478,367.235,430.164z"/>
			<path style="opacity:0.5;fill:#361D0D;" d="M264.757,139.997c2.31-1.306,5.003-1.896,7.651-2.27
				c3.925-0.555,7.893-0.881,11.844-1.199c4.253-0.342,8.518-0.581,12.787-0.578c4.028,0.003,8.072,0.225,12.062,0.791
				c2.961,0.42,5.85,1.151,8.585,2.317c-1.375-1.193-2.764-2.359-4.271-3.344c-2.136-1.443-4.506-2.554-6.982-2.95
				c-2.474-0.383-5.008,0.057-7.553,0.609c-1.277,0.272-2.577,0.54-3.908,0.738c-1.329,0.192-2.669,0.304-4.011,0.337
				c-1.342,0.021-2.686-0.04-4.021-0.179c-1.333-0.143-2.637-0.347-3.921-0.531c-2.564-0.399-5.087-0.472-7.582,0.081
				c-2.614,0.561-5.129,1.674-7.355,3.234c-0.053,0.098-0.143,0.175-0.26,0.205c-0.006,0.001-0.011,0-0.017,0.001
				C266.7,138.059,265.683,138.981,264.757,139.997z"/>
			<path style="opacity:0.5;fill:#361D0D;" d="M287.217,176.989c1.645-0.879,3.535-1.291,5.367-1.55
				c1.674-0.237,3.388-0.369,5.078-0.26c2.136,0.138,4.164,0.891,5.82,2.255c0.238,0.196,0.466,0.402,0.687,0.615
				c-0.016-0.22-0.041-0.439-0.085-0.655c-0.243-1.35-1.126-2.417-2.301-3.159c-1.171-0.739-2.547-1.197-3.937-1.437
				c-2-0.326-4.045-0.534-5.969-0.106c-0.961,0.198-1.864,0.581-2.663,1.115c-0.777,0.545-1.437,1.277-1.894,2.124
				c-0.23,0.413-0.41,0.858-0.536,1.317C286.925,177.158,287.068,177.069,287.217,176.989z"/>
			<path style="opacity:0.5;fill:#E09679;" d="M263.185,137.189c-0.145-0.61-0.497-1.201-0.85-1.779
				c-0.714-1.154-1.654-2.16-2.674-3.076c-2.052-1.835-4.451-3.284-6.7-4.992c-0.652-0.477-1.265-0.997-1.863-1.53
				c0.423,0.506,0.842,1.017,1.25,1.535c1.42,1.802,2.968,3.772,3.672,5.99c0.22,0.693,0.349,1.488,0.078,2.186
				c-0.336,0.865-1.227,1.34-2.134,1.311c-1.712-0.055-3.277-1.258-4.701-2.081c-0.939-0.542-3.093-1.662-3.81-0.228
				c-0.284,0.568-0.239,1.285-0.163,1.895c0.091,0.735,0.264,1.507,0.521,2.203c0.29,0.782,0.784,1.512,1.212,2.222
				c0.51,0.846,1.031,1.688,1.486,2.565c0.725,1.396,1.542,3.243,0.753,4.786c-0.74,1.448-2.48,0.906-3.604,0.294
				c-1.712-0.932-3.23-2.318-4.628-3.657c-1.667-1.597-3.2-3.325-4.753-5.031c-1.564-1.718-3.152-3.423-4.915-4.94
				c-1.374-1.182-2.909-2.406-4.557-3.192c-0.443-0.211-0.966-0.411-1.477-0.418c2.024,2.851,4.229,5.569,6.673,8.062
				c0.922,0.951,1.921,1.868,2.772,2.958c0.88,1.076,1.452,2.403,1.871,3.671c0.436,1.27,0.822,2.535,1.526,3.586
				c0.693,1.058,1.724,1.857,2.85,2.488c2.275,1.262,4.933,1.883,7.339,3.235c0.588,0.338,1.189,0.763,1.696,1.157
				c0.514,0.378,1.075,0.708,1.655,1.001c0.397,0.198,0.812,0.377,1.233,0.552c0.082-0.028,0.171-0.038,0.26-0.01
				c0.009,0.003,0.018,0.006,0.026,0.01c0.098,0.039,0.251-0.029,0.393-0.258c0.065-0.105,0.115-0.23,0.141-0.355
				c0.028-0.116,0.025-0.247,0.018-0.417c-0.012-0.322-0.072-0.683-0.039-1.102c0.014-0.417,0.249-0.902,0.526-1.176
				c0.266-0.293,0.521-0.496,0.659-0.731c0.155-0.235,0.246-0.507,0.28-0.802c0.067-0.596-0.078-1.254-0.263-1.908l-0.296-1.003
				c-0.105-0.341-0.199-0.752-0.161-1.18c0.019-0.216,0.071-0.452,0.213-0.677c0.138-0.225,0.373-0.407,0.619-0.483
				c0.504-0.138,0.82-0.051,1.088-0.125c1.157-0.24,1.976-1.501,2.258-2.742c0.319-1.295,0.283-2.73,0.779-4.162
				c0.135-0.36,0.317-0.713,0.593-1.026c0.268-0.311,0.677-0.577,1.138-0.626c0.451-0.04,0.797,0.062,1.046,0.025
				c0.242-0.027,0.476-0.164,0.658-0.374C263.26,138.413,263.348,137.795,263.185,137.189z"/>
			<path style="opacity:0.5;fill:#E09679;" d="M340.32,138.881c-1.151,1.149-2.521,2.16-4.016,2.811
				c-1.376,0.599-3.041,0.923-4.401,0.101c-2.485-1.501-1.49-4.61-0.808-6.848c0.409-1.342,0.88-2.669,1.205-4.035
				c0.208-0.873,0.528-2.116,0.034-2.953c-0.643-1.089-2.268-0.637-3.111-0.102c-1.369,0.869-2.402,2.253-3.935,2.868
				c-1.129,0.453-2.646,0.33-3.384-0.739c-0.676-0.978-0.573-2.329-0.405-3.442c0.184-1.216,0.543-2.399,0.931-3.563
				c0.718-2.153,1.557-4.265,2.499-6.33c1.007-2.205,2.1-4.417,3.39-6.472c0.729-1.162,1.662-2.295,2.042-3.635
				c0.111-0.392,0.154-0.777-0.096-1.028c-0.668,0.575-1.329,1.157-1.975,1.758c-2.02,1.888-3.911,3.906-5.637,6.065
				c-1.731,2.155-3.31,4.435-4.833,6.753c-0.502,0.766-0.991,1.542-1.482,2.316c-0.002,0.011,0.001,0.021-0.002,0.032
				c-0.858,3.136-1.04,6.495-0.557,9.689c0.142,0.775,0.389,1.528,0.83,2.122c0.438,0.596,1.068,1.053,1.753,1.149
				c0.181,0.027,0.4,0.037,0.656,0.098c0.247,0.051,0.585,0.215,0.768,0.503c0.169,0.267,0.216,0.478,0.282,0.571
				c0.053,0.084,0.125,0.135,0.245,0.173c0.544,0.162,1.206-0.291,1.88-0.787c0.345-0.244,0.744-0.501,1.207-0.65
				c0.453-0.155,1.035-0.186,1.531,0.053c0.503,0.229,0.842,0.665,1.044,1.096c0.209,0.438,0.306,0.895,0.345,1.354
				c0.095,1.811-0.521,3.418-0.625,4.996c-0.067,0.772,0.026,1.565,0.409,2.118c0.192,0.273,0.439,0.445,0.767,0.53
				c0.332,0.09,0.735,0.098,1.182,0.158c0.464,0.064,0.958,0.22,1.359,0.601c0.198,0.189,0.369,0.466,0.411,0.775
				c0.052,0.306-0.03,0.614-0.145,0.848c-0.229,0.462-0.584,0.779-0.75,1.048c-0.13,0.198-0.187,0.395-0.183,0.537
				c1.467-0.467,2.908-1.017,4.305-1.665c1.246-0.582,2.464-1.228,3.636-1.945c1.169-0.717,2.29-1.504,3.239-2.457
				c1.943-1.879,2.854-4.56,3.194-7.252c0.014-0.108,0.023-0.217,0.035-0.325C342.25,136.855,341.305,137.898,340.32,138.881z"/>
			<path style="opacity:0.5;fill:#B37148;" d="M313.579,184.227l-0.71,0.675c-0.934,0.913-1.814,1.883-2.632,2.903
				c-0.823,1.01-1.558,2.115-2.428,3.158c-0.865,1.039-1.897,2.013-3.17,2.63c-0.633,0.306-1.335,0.511-2.042,0.569
				c-0.707,0.059-1.404,0-2.082-0.12c-0.678-0.121-1.392-0.336-1.997-0.777c-0.597-0.436-1.044-1.006-1.402-1.595
				c-0.762-1.228-1.186-2.574-1.424-3.95c-0.031,0.159-0.056,0.319-0.09,0.477c-0.34,1.474-0.72,2.965-1.558,4.321
				c-0.419,0.666-0.999,1.275-1.688,1.684c-0.685,0.415-1.415,0.682-2.156,0.895c-1.485,0.421-3.083,0.51-4.603,0.196
				c-3.067-0.594-5.695-2.51-7.635-4.852c-0.974-1.182-1.758-2.462-2.691-3.578c-0.476-0.537-0.924-1.135-1.61-1.401
				c-0.016-0.006-0.028-0.016-0.043-0.022c2.031,3.172,3.313,6.889,6.17,9.437c2.887,2.575,7.28,2.573,10.716,1.173
				c1.65-0.672,3.175-2.166,5.068-1.999c1.038,0.092,2.028,0.644,2.998,0.991c0.988,0.354,2.005,0.642,3.059,0.693
				c3.604,0.174,6.789-1.865,8.83-4.709c1.605-2.237,2.679-4.789,3.754-7.316C313.978,183.856,313.786,184.05,313.579,184.227z"/>
			<path style="opacity:0.5;fill:#B37148;" d="M300.45,205.361c-1.231,0.371-2.521,0.553-3.811,0.554
				c-2.229-0.004-4.49-0.518-6.403-1.62c0.765,0.788,1.787,1.373,2.695,1.922c1.394,0.844,2.843,1.346,4.495,1.212
				c1.627-0.132,3.13-0.924,4.264-2.082c0.22-0.224,0.415-0.465,0.602-0.713C301.703,204.929,301.084,205.171,300.45,205.361z"/>
			<path style="opacity:0.5;fill:#B37148;" d="M258.758,378.481c-0.034-2.541,0.073-5.081,0.086-7.622
				c0.013-2.555-0.07-5.111-0.103-7.666c-0.017-1.288-0.038-2.575-0.065-3.862c-0.005-0.221-0.02-0.447-0.036-0.674
				c-0.621-0.365-1.28-0.656-1.971-0.845c-0.591,7.064-0.873,14.163-1.054,21.254l-0.204,9.345c1.176-0.838,2.265-1.809,3.332-2.825
				c0.161-0.151,0.317-0.303,0.476-0.455C258.979,382.921,258.787,380.705,258.758,378.481z"/>
			<path style="opacity:0.5;fill:#361D0D;" d="M259.629,187.895c0.059,0.039,0.121,0.073,0.18,0.113
				c0.975,0.662,1.881,1.449,2.805,2.181c1.852,1.466,3.683,2.966,5.246,4.746c1.455,1.657,2.693,3.489,3.806,5.389
				c0.545,0.931,1.149,1.766,1.938,2.508c0.766,0.72,1.624,1.331,2.487,1.927c0.861,0.595,1.748,1.165,2.529,1.866
				c0.725,0.65,1.352,1.399,1.906,2.198c1.175,1.694,2.022,3.553,3.401,5.109c1.27,1.432,2.783,2.604,4.424,3.581
				c1.933,1.151,3.984,2.16,6.013,3.13c2.168,1.036,4.426,1.93,6.801,2.352c1.524,0.271,3.046,0.316,4.506-0.262
				c2.558-1.013,4.208-3.497,5.379-5.866c1.319-2.668,2.177-5.54,3.009-8.389c0.357-1.223,0.702-2.452,1.103-3.662
				c0.7-2.114,1.567-4.157,2.542-6.159c1.072-2.202,2.243-4.354,3.336-6.545c0.763-1.53,1.431-3.098,2.145-4.649
				c0.584-1.268,1.229-2.542,2.113-3.631c0.355-0.437,0.813-0.873,1.325-1.104c-0.017-0.007-0.034-0.012-0.05-0.024
				c-0.001-0.001-0.003-0.003-0.004-0.003c-0.323-0.249-0.815-0.281-1.268-0.117c-0.46,0.155-0.828,0.481-1.125,0.916
				c-0.575,0.864-0.911,2.026-1.372,3.084c-0.885,2.147-1.823,4.272-2.847,6.356c-2.042,4.168-4.36,8.209-6.905,12.078
				c-0.613,0.956-1.162,1.96-1.204,3.038c-0.026,0.541,0.054,1.115,0.049,1.723c-0.004,0.615-0.127,1.219-0.3,1.787
				c-0.781,2.213-1.612,4.384-2.896,6.377c-0.639,0.988-1.423,1.907-2.391,2.62c-0.956,0.722-2.121,1.183-3.315,1.315
				c-2.418,0.254-4.731-0.642-6.777-1.708l-3.059-1.637c-1.02-0.546-2.069-0.931-3.168-1.374c-0.541-0.234-1.084-0.527-1.539-0.937
				c-0.456-0.403-0.824-0.874-1.175-1.336c-0.351-0.463-0.687-0.922-1.08-1.318c-0.392-0.401-0.834-0.761-1.286-1.119
				c-0.892-0.714-1.881-1.447-2.449-2.557c-0.292-0.551-0.386-1.166-0.503-1.716c-0.108-0.558-0.305-1.059-0.605-1.521
				c-0.605-0.922-1.564-1.576-2.544-2.156c-0.984-0.59-2.028-1.102-2.986-1.818c-0.471-0.364-0.925-0.808-1.189-1.393
				c-0.28-0.595-0.231-1.246-0.257-1.793c-0.028-1.1-0.605-2.11-1.378-2.903c-1.561-1.618-3.879-2.322-5.724-3.832
				c-1.868-1.457-3.341-3.304-4.792-5.098c-1.196-1.476-2.405-2.936-3.777-4.194c0.016,0.05,0.036,0.097,0.051,0.147
				C259.2,185.02,259.456,186.455,259.629,187.895z"/>
			<path style="opacity:0.5;fill:#B37148;" d="M264.31,415.089c-1.458-1.477-3.118-2.534-4.955-3.263
				c0.29,0.28,0.57,0.571,0.831,0.881c0.719,0.919,1.392,1.858,1.776,3.046c0.1,0.324,0.159,0.68,0.163,1.044l3.146-0.081
				l0.371-0.01C265.244,416.133,264.805,415.591,264.31,415.089z"/>
			<path style="opacity:0.5;fill:#B37148;" d="M178.082,420.948c0.443-3.142,3.372-5.25,6.064-6.465
				c3.022-1.365,6.308-2.048,9.507-2.86c3.727-0.945,7.446-1.951,11.06-3.271c1.847-0.675,3.664-1.433,5.427-2.306
				c1.511-0.748,3.113-1.536,4.396-2.646c0.615-0.532,1.297-1.21,1.454-2.036c0.142-0.748,0.147-1.431,0.552-2.102
				c0.771-1.277,2.032-2.222,3.181-3.136c2.674-2.128,5.021-4.731,6.915-7.578c0.932-1.4,1.754-2.898,2.27-4.504
				c0.456-1.418,0.817-3.012,0.58-4.505c-0.055-0.35-0.148-0.705-0.305-1.024c-0.073-0.149-0.161-0.293-0.254-0.43
				c-0.038-0.055-0.136-0.152-0.168-0.207c-0.029,0.011-0.062,0.022-0.082,0.033c-0.097,0.052-0.211,0.095-0.317,0.125
				c-0.258,0.073-0.497,0.016-0.752,0.048c-0.298,0.038-0.558,0.128-0.761-0.271c-0.328-0.645-0.365-1.193-0.317-1.91
				c0.062-0.919-0.037-1.86-0.084-2.779c-0.049-0.948-0.107-1.897-0.189-2.843c-0.133-1.539-0.338-3.067-0.635-4.58
				c-0.382-0.412-0.769-0.826-1.146-1.259c0.213,0.837,0.392,1.682,0.543,2.531c0.3,1.805,0.466,3.629,0.508,5.456
				c0.069,3.332-0.258,6.684-1.105,9.919c0.495-0.344,0.912-0.806,1.166-1.348l0.003-0.006c0.102-0.206,0.351-0.291,0.557-0.189
				c0.155,0.076,0.241,0.237,0.231,0.399c-0.15,2.465-0.893,4.876-2.039,7.05c-1.138,2.182-2.64,4.158-4.373,5.891
				c-1.744,1.721-3.707,3.195-5.762,4.487c-1.5,0.939-3.054,1.778-4.632,2.555c0.975-0.125,1.932-0.384,2.819-0.805l0.013-0.006
				c0.208-0.096,0.455-0.006,0.552,0.202c0.061,0.132,0.044,0.284-0.027,0.399c-0.669,1.063-1.706,1.804-2.76,2.336
				c-1.064,0.546-2.168,0.882-3.253,1.258c-2.185,0.728-4.423,1.277-6.669,1.743c-4.499,0.927-9.054,1.403-13.577,1.941
				c-4.52,0.542-9.053,1.04-13.451,2.094c-1.099,0.267-2.181,0.557-3.147,1.048c-0.961,0.479-1.794,1.217-2.214,2.167
				c-0.208,0.471-0.304,0.985-0.286,1.505c0.02,0.507,0.157,1.067,0.305,1.582c0.294,1.038,1.067,1.763,2.07,2.248
				c1.966,1.067,4.152,1.69,6.365,2.092c0.577,0.105,1.158,0.186,1.741,0.259C178.063,421.146,178.068,421.047,178.082,420.948z"/>
			<path style="opacity:0.5;fill:#B37148;" d="M234.613,371.222c0.2,1.232,0.53,2.457,0.666,3.684
				c0.268,2.426,0.261,4.928,0.26,7.366c-0.002,4.308-0.331,8.602-1.262,12.815c-0.082,0.372-0.177,0.74-0.271,1.108
				c1.148-0.581,2.324-1.18,3.494-1.849c0.081-0.047,0.17-0.056,0.256-0.045c-0.49-7.41-0.668-14.836-0.623-22.255
				c0.007-1.078,0.025-2.155,0.039-3.233C236.351,369.646,235.495,370.448,234.613,371.222z"/>
			<path style="opacity:0.5;fill:#B37148;" d="M236.213,413.244c-0.755-1.337-1.439-2.749-1.964-4.221
				c-0.262-0.743-0.461-1.559-0.467-2.387c-0.001-0.063,0.005-0.125,0.006-0.188l-2.753-0.047c-0.035,0.156-0.075,0.311-0.107,0.468
				c-0.395,1.933-0.532,3.912-0.291,5.875c0.247,2.001,0.956,3.822,2.016,5.529c0.174,0.281,0.358,0.556,0.54,0.832
				c2.202-0.455,4.18-0.893,5.451-1.196C237.979,416.32,237.086,414.798,236.213,413.244z"/>
			<path style="opacity:0.5;fill:#B37148;" d="M204.525,421.837c2.092-1.175,4.163-2.393,6.213-3.64
				c5.357-3.259,10.206-7.533,13.715-12.748c-0.524-0.391-0.827-0.89-0.815-1.414c0.013-0.553,0.344-0.987,0.699-1.374
				c0.983-1.07,2.032-1.962,3.13-2.749c0.578-1.384,1.061-2.804,1.48-4.246c-0.833,0.974-1.721,1.901-2.656,2.779
				c0.055,0.016,0.108,0.041,0.155,0.081c0.174,0.148,0.195,0.409,0.047,0.584c-10.609,12.482-26.045,20.701-42.066,22.631
				c4.094,0.21,8.189,0.299,12.289,0.274c2.585-0.017,5.171-0.073,7.757-0.148C204.491,421.857,204.508,421.847,204.525,421.837z"/>
			<path style="opacity:0.5;fill:#B37148;" d="M266.275,435.55c-1.146-1.502-2.677-2.824-4.179-3.954
				c-1.454-1.094-3.046-2.081-4.679-2.886c-1.084-0.534-2.247-0.971-3.443-1.153c0.911,0.389,1.778,0.894,2.571,1.486
				c1.253,0.924,2.341,2.033,3.399,3.14l0.787,0.836c0.262,0.281,0.546,0.583,0.77,0.976c0.059,0.101,0.11,0.213,0.153,0.33
				c1.494,0.637,3.091,1.096,4.721,1.368C266.34,435.646,266.31,435.596,266.275,435.55z"/>
			<path style="opacity:0.5;fill:#B37148;" d="M360.57,428.571c-2.136-1.536-4.587-2.33-7.153-2.64
				c1.316,0.738,2.555,1.622,3.71,2.611c0.995,0.847,1.911,1.795,2.722,2.827c0,0,0.001,0,0.001,0c0.007,0,0.015,0.001,0.022,0.001
				c1.245,0.116,2.498,0.148,3.75,0.133C362.704,430.411,361.735,429.408,360.57,428.571z"/>
			<path style="opacity:0.5;fill:#361D0D;" d="M145.954,382.466c-1.69,6.366-3.116,13.118-1.389,19.474
				c0.593,2.182,1.634,4.367,3.5,5.645c3.187,2.185,7.638,1.002,10.844-1.155c5.6-3.768,9.072-9.955,11.696-16.173
				c4.399-10.425,6.979-21.519,10.822-32.162c4.9-13.572,11.827-26.328,19.377-38.626c5.802-9.451,12.069-18.84,15.16-29.49
				c1.082-3.728,2.681-10.755-0.155-14.104c-2.272-2.683-6.233-1.276-8.744,0.274c-3.848,2.376-6.831,6.477-9.769,9.845
				c-3.313,3.798-6.506,7.701-9.573,11.701c-12.418,16.192-22.781,33.959-30.761,52.74
				C152.541,360.834,148.853,371.545,145.954,382.466z"/>
			<path style="opacity:0.5;fill:#361D0D;" d="M258.04,345.491c0.927-9.234,2.936-18.397,6.472-26.978
				c1.808-4.387,4.004-8.601,6.198-12.808c-0.892,10.613-2.77,20.977-2.11,31.606c0.151,2.436,0.454,4.932,1.61,7.081
				C266.234,344.837,262.036,345.31,258.04,345.491z"/>
			<path style="opacity:0.5;fill:#361D0D;" d="M300.167,318.499c2.117-3.348,4.047-6.836,5.397-10.56
				c2.61-7.201,3.008-15.155,6.4-22.024c-0.672,10.187-1.352,20.456-4.902,30.028c-0.984,2.652-2.168,5.226-3.35,7.796
				c-0.831,1.806-1.662,3.612-2.493,5.418c-0.103-2.673-0.091-5.297-0.194-7.97C300.985,320.206,300.676,319.339,300.167,318.499z"
				/>
			<path style="opacity:0.5;fill:#361D0D;" d="M322.324,210.976c-3.322,10.158-6.738,20.502-13.022,29.146
				c-1.103,1.517-2.37,3.035-4.115,3.723c-2.678,1.056-5.694-0.112-8.206-1.518c-10.654-5.962-18.216-16.092-25.45-25.927
				c3.031,7.564,6.188,14.644,11.077,21.163c4.889,6.519,11.097,12.169,18.464,15.651c-0.039-0.4-0.078-0.801-0.118-1.202
				c1.621,1.702,3.382,3.272,5.258,4.688c0.586-2.492,1.419-4.927,2.483-7.256c0.347,1.04,0.561,2.124,0.635,3.218
				c1.012-0.55,1.59-1.638,2.108-2.667c4.12-8.18,8.105-16.546,10.006-25.506C322.445,219.777,322.517,215.79,322.324,210.976z"/>
		</g>
		<g>
			<g>
				<g>
					<path style="fill:#593015;" d="M297.824,172.922c-1.991-0.32-4.021-0.535-5.921-0.114c-0.949,0.194-1.837,0.569-2.625,1.092
						c-0.763,0.532-1.413,1.25-1.864,2.083c-0.916,1.643-1.051,3.778-0.023,5.348c0.988,1.578,2.945,2.631,4.781,2.305l0.011-0.001
						l-0.108,0.948c-1.156-0.505-2.047-1.5-2.517-2.628c-0.213-0.571-0.446-1.122-0.362-1.895c0.044-0.379,0.286-0.791,0.575-1.017
						c0.288-0.239,0.573-0.37,0.853-0.493c0.57-0.234,1.197-0.402,1.885-0.326c0.69,0.053,1.396,0.516,1.721,1.135
						c0.339,0.614,0.406,1.23,0.495,1.78c0.08,0.548,0.162,1.083,0.354,1.466c0.207,0.404,0.491,0.595,0.813,0.541
						c0.339-0.047,0.745-0.365,1.041-0.738c0.641-0.793,1.11-1.893,2.096-2.73c0.251-0.206,0.558-0.4,0.935-0.49
						c0.383-0.096,0.802-0.034,1.14,0.123c0.682,0.323,1.114,0.937,1.267,1.637c0.148,0.745-0.108,1.428-0.484,1.967
						c-0.385,0.538-0.9,0.934-1.464,1.216l-0.047,0.024l-0.197-0.951c0.657,0.012,1.347-0.126,1.828-0.448
						c0.513-0.368,0.983-0.893,1.316-1.468c0.688-1.154,0.923-2.579,0.659-3.875c-0.243-1.322-1.1-2.35-2.261-3.082
						C300.565,173.607,299.201,173.156,297.824,172.922z M298.082,171.478c1.536,0.305,3.036,0.835,4.379,1.725
						c0.668,0.445,1.286,1.005,1.776,1.684c0.495,0.681,0.822,1.491,0.955,2.295c0.283,1.623-0.051,3.311-0.917,4.689
						c-0.436,0.694-0.982,1.293-1.691,1.772c-0.782,0.478-1.626,0.588-2.443,0.561c-0.276-0.009-0.492-0.241-0.482-0.516
						c0.006-0.188,0.116-0.348,0.272-0.428l0.014-0.007l0.036-0.018c0.867-0.405,1.572-1.305,1.41-2.088
						c-0.076-0.387-0.365-0.779-0.703-0.926c-0.33-0.157-0.651-0.074-1.024,0.231c-0.749,0.615-1.21,1.631-1.951,2.583
						c-0.401,0.476-0.892,0.958-1.672,1.101c-0.386,0.061-0.823-0.027-1.15-0.254c-0.329-0.222-0.549-0.521-0.702-0.823
						c-0.303-0.626-0.363-1.221-0.452-1.771c-0.081-0.547-0.164-1.067-0.376-1.436c-0.382-0.77-1.423-0.786-2.345-0.381
						c-0.23,0.099-0.455,0.214-0.596,0.335c-0.146,0.127-0.203,0.229-0.233,0.406c-0.058,0.349,0.108,0.896,0.294,1.353
						c0.39,0.928,1.099,1.708,2.001,2.103l0.017,0.007c0.25,0.109,0.364,0.401,0.254,0.651c-0.07,0.16-0.218,0.265-0.379,0.29
						l-0.014,0.002c-2.322,0.443-4.662-0.78-5.916-2.675c-1.327-1.955-1.193-4.572-0.138-6.553c0.522-1.009,1.282-1.895,2.214-2.572
						c0.931-0.651,1.989-1.115,3.075-1.361C293.776,170.953,295.989,171.091,298.082,171.478z"/>
				</g>
				<path style="fill:none;stroke:#593015;stroke-linecap:round;stroke-linejoin:round;stroke-miterlimit:10;" d="M272.85,143.747
					c-1.367,0.951-2.416,2.325-3.085,3.851c-0.362,0.825-0.603,1.826-0.129,2.593c0.369,0.596,1.103,0.893,1.804,0.89
					c0.701-0.003,1.375-0.264,2.003-0.574c1.612-0.797,3.045-1.955,4.163-3.364c0.56-0.706,1.055-1.51,1.152-2.406
					C279.151,141.117,274.516,142.588,272.85,143.747z"/>
				<path style="fill:none;stroke:#593015;stroke-linecap:round;stroke-linejoin:round;stroke-miterlimit:10;" d="M310.947,143.127
					c1.367,0.951,2.416,2.325,3.085,3.851c0.362,0.825,0.603,1.826,0.129,2.593c-0.369,0.596-1.103,0.893-1.804,0.89
					c-0.701-0.003-1.375-0.264-2.003-0.574c-1.612-0.797-3.045-1.955-4.163-3.364c-0.56-0.706-1.055-1.51-1.152-2.406
					C304.645,140.496,309.281,141.968,310.947,143.127z"/>
				<g>
					<path style="fill:#593015;" d="M296.189,183.669c-0.016,1.528-0.188,3.053-0.51,4.544c-0.343,1.479-0.724,2.972-1.572,4.345
						c-0.424,0.673-1.014,1.293-1.713,1.708c-0.695,0.42-1.429,0.688-2.175,0.903c-1.495,0.424-3.107,0.514-4.638,0.198
						c-3.09-0.597-5.733-2.521-7.685-4.873c-0.98-1.187-1.765-2.466-2.694-3.575c-0.477-0.529-0.909-1.139-1.616-1.363
						c-0.343-0.115-0.609-0.301-0.88-0.489c-0.271-0.188-0.528-0.393-0.798-0.656l-0.028-0.028
						c-0.213-0.208-0.217-0.549-0.009-0.762c0.096-0.098,0.221-0.152,0.348-0.161c0.441-0.031,0.868,0.07,1.249,0.248
						c0.38,0.178,0.733,0.414,0.976,0.762c0.466,0.702,1.075,1.175,1.548,1.798c0.976,1.197,1.746,2.486,2.658,3.613
						c1.81,2.234,4.279,4.068,7.099,4.626c1.399,0.288,2.855,0.206,4.233-0.183c1.398-0.386,2.672-1.028,3.382-2.237
						c0.733-1.181,1.092-2.643,1.399-4.065c0.289-1.433,0.432-2.895,0.426-4.355c-0.001-0.276,0.222-0.501,0.498-0.502
						c0.276-0.001,0.501,0.222,0.502,0.498C296.189,183.663,296.189,183.667,296.189,183.669z"/>
				</g>
				<g>
					<path style="fill:#593015;" d="M296.311,183.79c-0.01,2.595,0.192,5.277,1.521,7.432c0.326,0.535,0.717,1.014,1.184,1.35
						c0.459,0.333,1.034,0.514,1.649,0.621c1.25,0.227,2.496,0.168,3.59-0.391c2.261-1.108,3.552-3.5,5.201-5.615
						c0.827-1.064,1.717-2.078,2.666-3.036l0.722-0.708c0.232-0.247,0.523-0.426,0.695-0.741c0.299-0.682,0.885-1.066,1.662-1.164
						c0.319-0.04,0.61,0.186,0.651,0.505c0.012,0.095,0,0.188-0.031,0.272l-0.004,0.01c-0.267,0.72-0.7,1.184-1.394,1.378
						c-0.324,0.124-0.526,0.389-0.776,0.597l-0.709,0.672c-0.933,0.909-1.811,1.875-2.629,2.89
						c-0.821,1.005-1.558,2.108-2.434,3.155c-0.87,1.043-1.913,2.024-3.202,2.649c-1.292,0.658-2.832,0.715-4.175,0.454
						c-0.684-0.122-1.411-0.34-2.03-0.792c-0.609-0.445-1.062-1.024-1.423-1.618c-1.499-2.415-1.716-5.273-1.736-7.921
						c-0.002-0.276,0.22-0.502,0.496-0.504c0.276-0.002,0.502,0.22,0.504,0.496C296.311,183.784,296.311,183.789,296.311,183.79z"/>
				</g>
				<g>
					<path style="fill:#593015;" d="M319.505,140.638c-2.015-1.689-3.957-3.468-6.138-4.861c-2.141-1.423-4.506-2.509-6.958-2.89
						c-2.448-0.363-4.958,0.074-7.501,0.635c-2.54,0.567-5.253,1.044-7.945,1.086c-2.697,0.07-5.418-0.331-7.965-0.72
						c-2.559-0.407-5.05-0.482-7.534,0.052c-4.928,1.036-9.563,3.976-12.511,8.344c2.303-4.752,6.897-8.419,12.174-9.778
						c2.622-0.759,5.478-0.71,8.1-0.391c1.32,0.149,2.608,0.356,3.88,0.473c1.27,0.12,2.545,0.163,3.819,0.131
						c1.274-0.018,2.547-0.111,3.811-0.28c1.261-0.167,2.527-0.434,3.825-0.669c2.574-0.46,5.356-0.924,8.109-0.33
						c2.728,0.564,5.152,1.937,7.239,3.591C315.978,136.729,317.789,138.646,319.505,140.638z"/>
				</g>
				<g>
					<path style="fill:#593015;" d="M267.233,136.971c-0.634-2.555-1.372-5.165-3.022-7.103c-0.824-0.96-1.866-1.659-3.079-2.07
						c-1.21-0.429-2.535-0.659-3.85-1.119c-2.701-0.933-4.688-2.967-6.659-4.7c-1.973-1.755-4.153-3.263-6.489-4.485
						c-2.335-1.25-4.824-2.071-7.397-2.865c-1.279-0.416-2.566-0.873-3.795-1.497c-1.234-0.624-2.35-1.419-3.436-2.195
						c-1.086-0.775-2.163-1.545-3.315-2.118c-1.15-0.573-2.401-0.953-3.648-0.977c-1.245-0.02-2.461,0.396-3.374,1.227
						c-0.921,0.819-1.546,1.97-1.874,3.186c-0.692,2.468,0.046,5.105,1.146,7.456c1.14,2.365,2.536,4.669,3.919,6.934
						c2.809,4.519,5.981,8.825,9.699,12.615c0.92,0.949,1.922,1.867,2.778,2.965c0.886,1.083,1.466,2.426,1.885,3.695
						c0.436,1.272,0.822,2.53,1.516,3.567c0.684,1.044,1.703,1.833,2.822,2.461c2.26,1.255,4.919,1.875,7.34,3.234
						c0.59,0.339,1.202,0.772,1.705,1.162c0.509,0.374,1.067,0.702,1.643,0.993c1.143,0.571,2.431,1.012,3.663,1.524l0.014,0.006
						c0.255,0.106,0.376,0.399,0.27,0.653c-0.106,0.255-0.399,0.376-0.654,0.27l-0.001,0c-1.236-0.517-2.488-0.941-3.74-1.565
						c-0.616-0.313-1.216-0.665-1.784-1.084c-0.555-0.43-1.036-0.767-1.604-1.1c-2.252-1.281-4.895-1.9-7.327-3.241
						c-1.202-0.674-2.365-1.568-3.154-2.775c-0.797-1.202-1.19-2.543-1.621-3.791c-0.421-1.263-0.917-2.417-1.729-3.419
						c-0.789-1.017-1.763-1.918-2.703-2.888c-3.774-3.859-6.979-8.227-9.807-12.791c-1.398-2.3-2.78-4.581-3.961-7.037
						c-0.573-1.234-1.056-2.534-1.309-3.902c-0.26-1.358-0.263-2.817,0.12-4.175c0.369-1.356,1.068-2.656,2.147-3.625
						c1.069-0.984,2.555-1.49,3.983-1.462c1.434,0.026,2.804,0.452,4.044,1.065c1.247,0.619,2.355,1.414,3.445,2.188
						c1.089,0.776,2.163,1.536,3.32,2.118c1.159,0.586,2.401,1.027,3.664,1.436c1.264,0.41,2.556,0.787,3.828,1.264
						c1.273,0.469,2.513,1.028,3.718,1.65c2.406,1.253,4.66,2.807,6.686,4.605c2.008,1.771,3.914,3.677,6.346,4.502
						c1.211,0.426,2.538,0.655,3.854,1.114c1.326,0.44,2.585,1.272,3.5,2.35c1.852,2.186,2.591,4.924,3.246,7.509
						c0.068,0.268-0.094,0.54-0.362,0.607c-0.268,0.068-0.54-0.094-0.608-0.362l-0.001-0.002L267.233,136.971z"/>
				</g>
				<g>
					<path style="fill:#593015;" d="M253.254,157.882c0.043,0.007,0.051,0.008,0.109-0.018c0.054-0.031,0.128-0.106,0.187-0.203
						c0.059-0.096,0.106-0.213,0.131-0.328c0.026-0.104,0.023-0.227,0.017-0.396c-0.012-0.316-0.073-0.68-0.038-1.113
						c0.012-0.43,0.264-0.947,0.548-1.225c0.273-0.3,0.522-0.499,0.651-0.721c0.147-0.223,0.234-0.48,0.267-0.766
						c0.065-0.574-0.076-1.225-0.26-1.876l-0.296-1.002c-0.106-0.343-0.203-0.766-0.164-1.211c0.02-0.225,0.074-0.474,0.226-0.714
						c0.147-0.241,0.401-0.437,0.664-0.518c0.538-0.145,0.845-0.055,1.098-0.128c1.104-0.224,1.918-1.455,2.194-2.68
						c0.317-1.281,0.279-2.718,0.783-4.171c0.139-0.367,0.324-0.728,0.61-1.051c0.277-0.321,0.706-0.601,1.189-0.651
						c0.473-0.04,0.818,0.062,1.046,0.026c0.22-0.024,0.437-0.149,0.609-0.347c0.362-0.406,0.45-0.991,0.289-1.584
						c-0.141-0.594-0.491-1.182-0.841-1.756c-0.709-1.145-1.645-2.146-2.662-3.057c-2.046-1.826-4.443-3.273-6.699-4.983
						c-2.308-1.687-4.174-3.849-6.3-5.553c-2.12-1.716-4.645-2.941-7.016-4.453c-2.384-1.482-4.766-2.955-7.098-4.497l-0.004-0.003
						c-0.23-0.152-0.294-0.463-0.141-0.693c0.149-0.225,0.45-0.29,0.679-0.15l7.137,4.39c2.348,1.48,4.876,2.755,7.112,4.577
						c2.223,1.82,4.027,3.952,6.237,5.588c2.185,1.688,4.594,3.163,6.717,5.084c1.055,0.96,2.044,2.031,2.801,3.273
						c0.368,0.62,0.751,1.249,0.937,2.025c0.201,0.749,0.109,1.711-0.475,2.373c-0.279,0.331-0.695,0.603-1.175,0.661
						c-0.471,0.047-0.822-0.051-1.048-0.012c-0.431,0.042-0.815,0.54-1.014,1.121c-0.423,1.206-0.403,2.629-0.739,4.068
						c-0.168,0.731-0.48,1.453-0.951,2.074c-0.465,0.615-1.143,1.166-1.988,1.334c-0.432,0.088-0.844,0.037-0.982,0.1
						c-0.127,0.046-0.193,0.13-0.223,0.393c-0.05,0.491,0.253,1.171,0.432,1.861c0.191,0.688,0.381,1.431,0.296,2.255
						c-0.044,0.408-0.181,0.833-0.419,1.193c-0.238,0.379-0.551,0.621-0.741,0.842c-0.202,0.227-0.27,0.376-0.295,0.649
						c-0.025,0.266,0.023,0.6,0.043,0.981c0.008,0.179,0.016,0.41-0.036,0.649c-0.049,0.227-0.132,0.44-0.254,0.642
						c-0.124,0.2-0.286,0.396-0.534,0.545c-0.244,0.15-0.608,0.208-0.902,0.113c-0.262-0.085-0.406-0.366-0.321-0.628
						c0.077-0.239,0.318-0.379,0.558-0.338L253.254,157.882z"/>
				</g>
				<g>
					<path style="fill:#593015;" d="M306.766,131.55c1.255-0.097,2.405-0.786,3.349-1.704c0.951-0.923,1.734-2.046,2.473-3.203
						c1.483-2.345,2.945-4.719,4.477-7.052c1.534-2.331,3.13-4.633,4.887-6.819c1.752-2.19,3.68-4.245,5.729-6.157
						c4.111-3.82,8.68-7.081,13.346-10.129c2.336-1.525,4.699-2.998,7.063-4.467c0.59-0.361,1.263-0.788,2.108-0.876
						c0.847-0.099,1.677,0.241,2.285,0.739c0.614,0.506,1.06,1.168,1.329,1.9c0.267,0.749,0.311,1.523,0.247,2.264
						c-0.133,1.494-0.681,2.83-1.137,4.132l-1.409,3.928l-2.818,7.856c-0.929,2.618-1.902,5.239-2.793,7.853
						c-0.889,2.619-1.521,5.274-1.586,8.022c-0.12,2.744,0.07,5.549-0.299,8.379c-0.185,1.408-0.501,2.818-1.053,4.159
						c-0.541,1.339-1.362,2.597-2.394,3.617c-1.024,1.029-2.205,1.854-3.407,2.592c-1.203,0.736-2.45,1.399-3.727,1.996
						c-2.557,1.188-5.248,2.086-8.006,2.675c-0.27,0.058-0.536-0.114-0.593-0.385c-0.058-0.27,0.114-0.536,0.384-0.593l0.001,0
						c2.684-0.572,5.304-1.445,7.794-2.6c2.457-1.186,4.942-2.517,6.851-4.384c1.926-1.862,2.831-4.52,3.17-7.203
						c0.357-2.699,0.175-5.481,0.296-8.293c0.066-2.83,0.737-5.649,1.64-8.29c0.905-2.652,1.871-5.248,2.804-7.873l2.822-7.854
						l1.411-3.927c0.465-1.313,0.975-2.594,1.085-3.887c0.057-0.641,0.01-1.289-0.192-1.853c-0.208-0.573-0.569-1.103-1.031-1.481
						c-0.462-0.374-1.025-0.593-1.575-0.527c-0.556,0.05-1.117,0.374-1.698,0.737c-2.361,1.469-4.719,2.941-7.042,4.459
						c-4.642,3.035-9.163,6.27-13.209,10.034c-2.017,1.886-3.905,3.9-5.628,6.056c-1.728,2.152-3.306,4.429-4.828,6.746
						c-1.521,2.319-2.975,4.685-4.465,7.043c-0.757,1.183-1.571,2.365-2.619,3.386c-1.032,1.01-2.403,1.861-3.955,1.983
						l-0.008,0.001c-0.275,0.022-0.516-0.184-0.538-0.459C306.285,131.812,306.49,131.571,306.766,131.55L306.766,131.55z"/>
				</g>
				<g>
					<path style="fill:#593015;" d="M316.419,122.458c-0.855,3.123-1.034,6.475-0.553,9.65c0.141,0.768,0.385,1.508,0.814,2.085
						c0.428,0.582,1.039,1.022,1.695,1.113c0.176,0.027,0.398,0.036,0.665,0.1c0.257,0.052,0.623,0.229,0.821,0.54
						c0.18,0.287,0.227,0.499,0.284,0.573c0.042,0.065,0.091,0.1,0.194,0.134c0.479,0.15,1.124-0.271,1.803-0.775
						c0.346-0.245,0.754-0.509,1.231-0.662c0.466-0.16,1.076-0.194,1.596,0.057c0.528,0.24,0.88,0.696,1.088,1.139
						c0.215,0.451,0.313,0.918,0.353,1.386c0.095,1.84-0.524,3.448-0.626,5.009c-0.067,0.763,0.028,1.537,0.392,2.061
						c0.183,0.258,0.405,0.414,0.718,0.496c0.317,0.087,0.717,0.095,1.171,0.156c0.475,0.066,0.986,0.225,1.408,0.625
						c0.208,0.199,0.392,0.494,0.436,0.824c0.055,0.327-0.032,0.655-0.153,0.899c-0.238,0.48-0.602,0.803-0.754,1.057
						c-0.189,0.285-0.207,0.554-0.142,0.6c0.23,0.164,0.284,0.483,0.12,0.713c-0.164,0.23-0.483,0.284-0.713,0.12
						c-0.043-0.03-0.079-0.066-0.109-0.105l-0.101-0.133c-0.222-0.292-0.269-0.691-0.209-0.979c0.055-0.297,0.172-0.536,0.305-0.751
						c0.297-0.444,0.571-0.687,0.698-0.961c0.111-0.256,0.085-0.379-0.082-0.559c-0.184-0.178-0.5-0.305-0.841-0.345
						c-0.368-0.053-0.806-0.052-1.295-0.177c-0.495-0.116-1.001-0.459-1.288-0.888c-0.59-0.864-0.647-1.854-0.586-2.725
						c0.131-1.751,0.711-3.349,0.612-4.857c-0.051-0.707-0.358-1.449-0.841-1.651c-0.466-0.236-1.155,0.045-1.783,0.511
						c-0.33,0.229-0.682,0.5-1.115,0.714c-0.441,0.219-0.991,0.365-1.583,0.203c-0.294-0.08-0.613-0.292-0.787-0.586
						c-0.162-0.279-0.212-0.482-0.263-0.544c-0.008-0.081-0.291-0.145-0.772-0.193c-1.006-0.149-1.829-0.783-2.376-1.529
						c-0.562-0.767-0.834-1.654-0.992-2.512c-0.504-3.39-0.302-6.817,0.598-10.101c0.073-0.266,0.348-0.423,0.614-0.35
						C316.336,121.914,316.492,122.192,316.419,122.458z"/>
				</g>
				<g>
					<path style="fill:#593015;" d="M326.825,150.868c-0.574,1.515-0.307,3.247,0.083,4.907c0.412,1.663,0.949,3.379,1.121,5.158
						c0.381,3.547-0.106,7.051-0.182,10.502c-0.052,1.737,0.043,3.425,0.295,5.156c0.106,0.869,0.202,1.76,0.173,2.671
						c-0.018,0.91-0.22,1.841-0.529,2.679c-0.3,0.846-0.667,1.636-0.941,2.438c-0.281,0.802-0.501,1.627-0.654,2.464
						c-0.312,1.673-0.367,3.393-0.164,5.081c1.066,6.855,1.997,13.882,1.472,20.907c-0.241,3.507-0.873,7.004-2.01,10.349
						c-0.532,1.675-1.313,3.308-1.957,4.869c-0.66,1.564-0.758,3.223-0.339,4.861c0.766,3.289,3.129,6.079,4.08,9.588
						c0.484,1.728,0.685,3.507,0.765,5.268c0.04,0.882,0.049,1.761,0.045,2.638c-0.023,0.899,0.003,1.678,0.175,2.511
						c0.673,3.308,2.86,6.141,4.417,9.3c0.787,1.577,1.492,3.215,1.953,4.947c0.455,1.728,0.652,3.568,0.361,5.377
						c-0.134,0.913-0.447,1.766-0.647,2.573c-0.226,0.809-0.222,1.578-0.216,2.485c0.026,1.858-0.663,3.623-1.385,5.204
						c-0.723,1.597-1.508,3.139-1.805,4.768c-0.316,1.617-0.026,3.328,0.058,5.105c0.161,3.629-0.894,7.056-1.667,10.427
						l-2.453,10.17l-0.001,0.006c-0.065,0.268-0.335,0.434-0.603,0.369c-0.268-0.065-0.434-0.335-0.369-0.603l0,0l2.464-10.168
						c0.788-3.393,1.81-6.765,1.655-10.156c-0.07-1.692-0.388-3.489-0.036-5.324c0.339-1.818,1.173-3.421,1.881-4.99
						c0.717-1.57,1.329-3.152,1.306-4.815c-0.009-0.832-0.005-1.828,0.247-2.707c0.223-0.883,0.516-1.677,0.634-2.495
						c0.534-3.325-0.691-6.701-2.214-9.751c-1.492-3.073-3.737-5.929-4.486-9.541c-0.188-0.877-0.215-1.852-0.189-2.694
						c0.005-0.867-0.003-1.732-0.04-2.592c-0.076-1.719-0.27-3.429-0.726-5.064c-0.856-3.278-3.22-6.062-4.076-9.625
						c-0.212-0.881-0.318-1.802-0.258-2.727c0.053-0.93,0.313-1.833,0.64-2.664c0.688-1.659,1.422-3.179,1.95-4.83
						c1.113-3.261,1.737-6.682,1.979-10.13c0.524-6.92-0.378-13.841-1.442-20.742c-0.211-1.775-0.15-3.579,0.179-5.335
						c0.161-0.878,0.393-1.744,0.69-2.586c0.292-0.848,0.662-1.643,0.945-2.441c0.63-1.574,0.547-3.248,0.321-4.972
						c-0.25-1.721-0.352-3.526-0.294-5.276c0.086-3.512,0.565-6.982,0.199-10.395c-0.168-1.702-0.658-3.34-1.108-5.051
						c-0.451-1.69-0.758-3.558-0.246-5.41c0.073-0.267,0.348-0.424,0.614-0.352c0.267,0.072,0.424,0.347,0.352,0.614
						C326.836,150.837,326.83,150.854,326.825,150.868z"/>
				</g>
				<g>
					<path style="fill:#593015;" d="M254.14,158.587c1.402,2.659,1.713,5.656,1.831,8.503l0.253,8.545
						c0.039,1.407,0.348,2.691,0.936,3.97c0.562,1.269,1.256,2.573,1.674,3.985c0.876,2.805,1.027,5.716,1.236,8.546
						c0.102,1.421,0.219,2.826,0.425,4.223l0.67,4.22c0.454,2.825,0.625,5.769,0.214,8.635c-0.759,5.745-3.309,11.178-6.991,15.58
						c-0.093,0.111-0.258,0.126-0.369,0.033c-0.109-0.091-0.124-0.252-0.038-0.363c3.47-4.459,5.869-9.774,6.582-15.356
						c0.388-2.791,0.217-5.604-0.24-8.399l-0.686-4.225c-0.215-1.423-0.34-2.86-0.447-4.282c-0.217-2.84-0.384-5.684-1.226-8.339
						c-0.397-1.329-1.055-2.554-1.652-3.886c-0.294-0.665-0.562-1.359-0.739-2.092c-0.178-0.734-0.251-1.476-0.29-2.201
						l-0.283-8.552c-0.123-2.811-0.451-5.653-1.743-8.075c-0.131-0.243-0.041-0.546,0.202-0.678
						c0.243-0.131,0.546-0.041,0.678,0.202L254.14,158.587z"/>
				</g>
				<path style="fill:none;stroke:#593015;stroke-linecap:round;stroke-linejoin:round;stroke-miterlimit:10;" d="M302.027,173.814
					c0.711,0.006,1.296-0.519,1.91-0.878c1.056-0.617,2.372-0.771,3.542-0.415c1.027,0.313,1.909,0.986,2.918,1.352
					c1.572,0.571,3.417,0.322,4.783-0.643c0.455-0.322,0.862-0.719,1.36-0.969c0.791-0.397,1.76-0.397,2.484-0.906
					c0.927-0.651,1.157-1.895,1.474-2.983c0.707-2.426,2.176-4.553,3.719-6.553c0.873-1.131,1.247-2.036,2.605-2.479"/>
				<g>
					<path style="fill:#593015;" d="M288.535,173.653c-0.508-0.762-1.035-1.456-1.712-1.682c-0.709-0.25-1.184,0.018-1.715,0.738
						c-0.533,0.719-1.095,1.534-1.857,2.216c-0.383,0.339-0.817,0.661-1.334,0.869c-0.499,0.218-1.119,0.301-1.585,0.3
						c-0.473,0.008-0.845,0.035-1.068,0.162c-0.239,0.113-0.53,0.483-0.992,0.831c-0.886,0.654-2,0.946-3.086,0.816
						c-1.118-0.133-2.043-0.751-2.779-1.346c-0.747-0.603-1.405-1.217-2.121-1.608c-0.366-0.198-0.698-0.31-1.158-0.405
						c-0.444-0.089-1.025-0.251-1.469-0.552c-0.915-0.591-1.466-1.419-2.035-2.119c-0.551-0.726-1.166-1.262-1.943-1.79
						c-0.742-0.533-1.589-1.081-2.153-1.983c-0.285-0.439-0.429-0.997-0.487-1.454c-0.068-0.47-0.156-0.832-0.372-1.171
						c-0.43-0.678-1.199-1.171-1.991-1.578c-0.195-0.098-0.386-0.18-0.569-0.229c-0.183-0.049-0.376-0.067-0.448-0.031
						c-0.217,0.066-0.493,0.421-0.683,0.793c-0.408,0.776-0.621,1.639-1.072,2.572c-0.12,0.249-0.419,0.353-0.668,0.233
						c-0.249-0.12-0.353-0.419-0.233-0.668c0.004-0.008,0.008-0.016,0.012-0.023l0.016-0.028c0.397-0.717,0.693-1.656,1.186-2.505
						c0.259-0.413,0.517-0.918,1.195-1.17c0.376-0.106,0.662-0.024,0.92,0.044c0.262,0.079,0.495,0.192,0.711,0.307
						c0.827,0.455,1.708,0.967,2.287,1.872c0.293,0.446,0.412,1.01,0.48,1.452c0.074,0.458,0.18,0.813,0.406,1.155
						c0.894,1.355,2.952,1.98,4.153,3.583c0.612,0.713,1.17,1.428,1.848,1.82c0.339,0.205,0.672,0.286,1.135,0.367
						c0.452,0.071,1.017,0.227,1.472,0.461c0.937,0.466,1.644,1.139,2.351,1.677c0.701,0.547,1.413,0.968,2.16,1.038
						c0.754,0.085,1.56-0.119,2.165-0.569c0.292-0.192,0.568-0.596,1.152-0.928c0.606-0.316,1.2-0.295,1.643-0.312
						c1.624,0.084,2.741-1.351,3.861-2.838c0.307-0.381,0.687-0.821,1.279-1.075c0.603-0.252,1.265-0.179,1.786,0.035
						c1.099,0.453,1.668,1.413,2.15,2.179c0.148,0.233,0.079,0.542-0.154,0.69C288.99,173.943,288.686,173.877,288.535,173.653z"/>
				</g>
				<g>
					<path style="fill:#593015;" d="M289.386,203.751c2.475,0.581,4.843,0.932,7.245,0.884c1.196-0.023,2.39-0.107,3.587-0.281
						c1.199-0.173,2.393-0.42,3.646-0.695c-0.986,0.826-2.16,1.411-3.393,1.798c-1.234,0.386-2.533,0.589-3.832,0.582
						C294.056,206.022,291.419,205.316,289.386,203.751z"/>
				</g>
				<g>
					<path style="fill:#593015;" d="M326.519,182.77c-0.292-0.227-0.752-0.262-1.187-0.105c-0.441,0.149-0.791,0.458-1.083,0.884
						c-0.562,0.842-0.903,2.009-1.364,3.068c-0.887,2.148-1.825,4.275-2.852,6.36c-2.047,4.169-4.372,8.212-6.922,12.078
						c-0.614,0.953-1.155,1.947-1.198,3.005c-0.026,0.533,0.053,1.107,0.048,1.721c-0.005,0.622-0.13,1.233-0.304,1.803
						c-0.787,2.22-1.616,4.389-2.906,6.391c-0.642,0.992-1.431,1.916-2.405,2.633c-0.963,0.726-2.138,1.192-3.342,1.324
						c-2.437,0.255-4.758-0.647-6.807-1.716l-3.058-1.638c-1.019-0.546-2.06-0.928-3.164-1.374
						c-0.543-0.235-1.092-0.532-1.552-0.946c-0.461-0.407-0.83-0.881-1.182-1.344c-0.351-0.463-0.686-0.921-1.076-1.314
						c-0.389-0.398-0.829-0.757-1.281-1.115c-0.891-0.714-1.887-1.449-2.462-2.573c-0.295-0.558-0.391-1.181-0.507-1.728
						c-0.108-0.556-0.301-1.048-0.598-1.504c-0.598-0.911-1.55-1.562-2.528-2.141c-0.983-0.589-2.027-1.101-2.991-1.821
						c-0.475-0.367-0.934-0.816-1.204-1.411c-0.286-0.608-0.235-1.269-0.262-1.811c-0.029-1.085-0.599-2.081-1.367-2.868
						c-1.548-1.603-3.865-2.305-5.724-3.82c-3.743-2.959-5.93-7.285-9.487-10.07c-0.218-0.169-0.258-0.484-0.088-0.702
						c0.169-0.218,0.484-0.258,0.702-0.088c0.004,0.003,0.01,0.008,0.014,0.011c3.683,3.082,5.767,7.419,9.316,10.272
						c1.704,1.458,4.025,2.181,5.724,3.96c0.824,0.864,1.475,2.024,1.49,3.282c0.012,0.603-0.022,1.144,0.2,1.6
						c0.209,0.466,0.597,0.861,1.033,1.196c0.892,0.668,1.934,1.186,2.935,1.784c0.996,0.593,2.025,1.278,2.711,2.317
						c0.337,0.51,0.568,1.117,0.678,1.697c0.121,0.58,0.207,1.12,0.459,1.592c0.488,0.966,1.408,1.671,2.309,2.387
						c0.454,0.36,0.914,0.732,1.336,1.16c0.427,0.428,0.778,0.908,1.127,1.364c0.349,0.457,0.699,0.898,1.108,1.256
						c0.403,0.36,0.886,0.622,1.403,0.844c1.041,0.416,2.178,0.832,3.203,1.378l3.066,1.628c2.013,1.045,4.234,1.872,6.457,1.627
						c2.23-0.228,4.08-1.784,5.266-3.688c1.214-1.898,2.065-4.089,2.79-6.229c0.157-0.536,0.258-1.073,0.256-1.609
						c0.001-0.543-0.087-1.122-0.067-1.746c0.042-1.286,0.664-2.409,1.277-3.39c2.5-3.889,4.75-7.911,6.734-12.072
						c0.995-2.078,1.928-4.185,2.795-6.318l0.638-1.608c0.215-0.543,0.448-1.116,0.815-1.652c0.351-0.53,0.901-1.038,1.566-1.261
						c0.64-0.236,1.478-0.24,2.123,0.247c0.221,0.166,0.266,0.479,0.1,0.7c-0.166,0.221-0.479,0.266-0.7,0.1
						C326.524,182.775,326.52,182.771,326.519,182.77z"/>
				</g>
				<g>
					<path style="fill:#593015;" d="M325.988,305.803c0.582,3.166,0.805,6.352,0.965,9.541l0.52,9.565l1.041,19.13l1.041,19.13
						c0.349,6.377,0.666,12.751,1.344,19.084c0.689,6.326,1.748,12.628,3.635,18.698c1.874,6.059,4.526,11.919,8.258,17.052
						c0.24,0.328,0.444,0.657,0.698,0.877c0.258,0.237,0.568,0.424,0.906,0.566c0.678,0.285,1.448,0.402,2.225,0.475
						c1.555,0.163,3.188,0.057,4.818,0.515c1.684,0.448,2.846,1.747,4.215,2.321c1.357,0.575,3.069,0.373,4.651,0.94
						c1.572,0.514,2.996,1.398,4.212,2.479c1.23,1.07,2.289,2.315,3.218,3.637l0.349,0.505c0.114,0.18,0.276,0.439,0.229,0.795
						c-0.047,0.354-0.341,0.602-0.568,0.7c-0.238,0.112-0.465,0.157-0.687,0.187c-0.803,0.098-1.603,0.176-2.409,0.226
						c-1.609,0.099-3.225,0.114-4.84,0.054c-0.276-0.01-0.492-0.242-0.481-0.518c0.01-0.276,0.242-0.492,0.518-0.481
						c0.01,0,0.022,0.001,0.031,0.002c1.57,0.155,3.153,0.204,4.733,0.143c0.789-0.026,1.581-0.079,2.366-0.151
						c0.353-0.02,0.672-0.177,0.653-0.273c0.063-0.096-0.227-0.497-0.441-0.807c-1.771-2.57-4.115-4.918-7.083-5.87
						c-0.736-0.245-1.488-0.353-2.283-0.434c-0.789-0.085-1.632-0.174-2.43-0.51c-1.571-0.684-2.672-1.915-4.144-2.277
						c-1.464-0.413-3.077-0.317-4.691-0.473c-0.807-0.075-1.64-0.188-2.441-0.519c-0.398-0.166-0.784-0.393-1.116-0.695
						c-0.349-0.311-0.568-0.672-0.801-0.984c-3.81-5.198-6.516-11.127-8.434-17.244c-1.93-6.13-3.022-12.483-3.738-18.841
						c-0.718-6.366-1.014-12.757-1.368-19.131l-1.039-19.13l-1.039-19.13l-0.519-9.565
						C325.877,312.205,325.753,309.014,325.988,305.803z"/>
				</g>
				<g>
					<path style="fill:#593015;" d="M352.661,425.516c1.618,0.783,3.116,1.815,4.507,2.982c1.396,1.162,2.645,2.523,3.644,4.053
						l0.003,0.004c0.156,0.226,0.099,0.535-0.126,0.691c-0.072,0.05-0.153,0.078-0.235,0.086l-0.007,0.001l-18.54,1.692
						c-1.553,0.133-3.159,0.237-4.777-0.07c-1.605-0.267-3.23-1.18-4.172-2.573c-0.968-1.363-1.454-2.897-1.991-4.341l-1.57-4.38
						c-1.058-2.905-2.188-5.78-3.645-8.475c-1.459-2.686-3.25-5.207-5.493-7.251c-0.558-0.513-1.152-0.982-1.76-1.431
						c-0.613-0.442-1.284-0.866-1.909-1.41c-1.315-1.115-1.944-2.711-2.532-4.116c-1.214-2.881-2.207-5.854-3.003-8.876
						c-0.787-3.026-1.367-6.104-1.723-9.21c-0.171-1.553-0.311-3.111-0.371-4.674c-0.075-1.573-0.049-3.116-0.175-4.635
						c-0.448-6.133-2.289-12.081-3.868-18.084c-1.617-6.02-2.695-12.172-3.44-18.349c-0.369-3.09-0.652-6.189-0.864-9.292
						c-0.28-3.109-0.112-6.237-0.903-9.157c-0.072-0.267,0.085-0.541,0.352-0.613c0.266-0.072,0.541,0.085,0.613,0.352
						c0,0.001,0,0.002,0.001,0.003l0.004,0.014c0.397,1.534,0.596,3.133,0.67,4.694c0.073,1.562,0.15,3.091,0.26,4.64
						c0.211,3.088,0.492,6.17,0.859,9.241c0.74,6.14,1.811,12.244,3.414,18.214c1.569,5.975,3.436,11.98,3.898,18.266
						c0.129,1.574,0.103,3.139,0.176,4.664c0.058,1.539,0.196,3.073,0.365,4.603c0.352,3.059,0.922,6.092,1.697,9.072
						c0.784,2.977,1.762,5.905,2.958,8.742c0.594,1.428,1.171,2.832,2.268,3.749c0.546,0.478,1.189,0.888,1.835,1.351
						c0.64,0.472,1.265,0.966,1.849,1.504c2.351,2.144,4.201,4.757,5.699,7.515c1.496,2.768,2.641,5.688,3.706,8.609l1.571,4.382
						c0.535,1.454,1.019,2.92,1.863,4.097c0.82,1.192,2.106,1.919,3.55,2.175c1.441,0.276,2.971,0.19,4.499,0.056l18.537-1.691
						l-0.369,0.778l-0.002-0.003c-1.004-1.435-2.087-2.814-3.291-4.11C355.483,427.711,354.115,426.568,352.661,425.516z"/>
				</g>
				<g>
					<path style="fill:#593015;" d="M312.27,286.345c-1.945,3.052-2.483,6.679-3.312,10.203c-0.791,3.544-1.686,7.076-2.86,10.528
						c-1.167,3.448-2.639,6.825-4.605,9.922c-1.988,3.077-4.374,5.87-6.933,8.464c-5.155,5.172-10.929,9.587-16.322,14.427
						c-1.382,1.191-2.831,2.342-4.446,3.27c-1.601,0.939-3.429,1.573-5.262,1.841c-1.835,0.285-3.635,0.388-5.443,0.541
						l-5.422,0.437l-0.012,0.001c-0.275,0.022-0.516-0.183-0.538-0.458c-0.022-0.275,0.183-0.516,0.458-0.539l0.002,0l5.424-0.412
						c1.805-0.144,3.631-0.243,5.383-0.508c1.758-0.253,3.417-0.821,4.953-1.706c1.537-0.873,2.95-1.98,4.317-3.148
						c5.423-4.821,11.224-9.219,16.342-14.309c2.544-2.554,4.905-5.294,6.869-8.304c1.94-3.021,3.4-6.335,4.578-9.745
						c1.184-3.409,2.097-6.912,2.909-10.44c0.845-3.487,1.425-7.222,3.447-10.351l0.007-0.012c0.083-0.128,0.254-0.165,0.382-0.082
						C312.315,286.047,312.352,286.217,312.27,286.345z"/>
				</g>
				<g>
					<path style="fill:#593015;" d="M330.809,290.836c-0.814,1.355-1.728,2.651-2.73,3.874l-0.768,0.903
						c-0.255,0.283-0.532,0.631-0.976,0.896c-0.222,0.13-0.51,0.235-0.822,0.226c-0.315-0.004-0.601-0.128-0.814-0.269
						c-0.424-0.294-0.682-0.62-0.942-0.981c-0.973-1.485-1.1-3.12-1.533-4.569c-0.399-1.486-0.853-2.958-1.399-4.398
						c-2.156-5.767-5.473-11.1-9.756-15.524c-0.535-0.567-1.145-1.222-1.457-2.122c-0.31-0.887-0.26-1.842,0.006-2.688
						c0.263-0.847,0.767-1.628,1.405-2.226c0.635-0.604,1.384-1.05,2.159-1.375c3.136-1.265,6.562-0.938,9.612-0.038
						c1.537,0.471,3.003,1.09,4.423,1.822c1.415,0.723,2.835,1.734,3.785,3.114c0.967,1.348,1.574,2.86,2.051,4.374
						c0.474,1.52,0.798,3.064,1.096,4.597c0.053,0.271-0.124,0.534-0.395,0.586c-0.267,0.052-0.527-0.123-0.585-0.387
						c-0.658-2.999-1.372-6.089-3.116-8.477c-0.853-1.183-2.055-2.021-3.409-2.694c-1.357-0.673-2.78-1.247-4.227-1.666
						c-2.869-0.853-6.014-1.048-8.724,0.006c-1.327,0.524-2.454,1.466-2.863,2.752c-0.208,0.629-0.244,1.309-0.044,1.902
						c0.188,0.591,0.642,1.138,1.162,1.699c4.277,4.622,7.676,10.07,9.865,15.976c0.554,1.474,1.015,2.981,1.418,4.503
						c0.429,1.52,0.601,3.105,1.375,4.254c0.187,0.271,0.437,0.557,0.656,0.704c0.229,0.137,0.323,0.136,0.563,0.016
						c0.232-0.133,0.467-0.392,0.726-0.688l0.747-0.873c0.974-1.182,1.863-2.436,2.656-3.747c0.143-0.236,0.45-0.312,0.687-0.169
						C330.875,290.293,330.952,290.6,330.809,290.836z"/>
				</g>
				<g>
					<path style="fill:#593015;" d="M272.764,300.966c0.935-0.147,1.749-0.877,2.444-1.681c0.713-0.811,1.348-1.695,1.93-2.617
						c1.165-1.846,2.117-3.838,3.136-5.809c1.988-3.993,4.703-7.592,7.656-10.892c1.478-1.656,3.007-3.259,4.541-4.854
						c1.479-1.617,3.281-3.08,3.902-5.129c0.312-1.008,0.242-2.099-0.295-3.003c-0.521-0.909-1.348-1.647-2.241-2.237
						c-1.811-1.176-4.006-1.696-6.173-1.732c-2.183-0.036-4.353,0.398-6.477,0.962c-2.124,0.578-4.252,1.194-6.198,2.179
						c-1.951,0.966-3.652,2.415-4.736,4.295c-1.087,1.871-1.658,4.027-1.783,6.188c-0.26,4.365,0.97,8.639,1.753,13.007
						c0.389,2.194,0.758,4.403,0.659,6.699c-0.056,1.104-0.139,2.199,0.055,3.194c0.099,0.488,0.284,0.939,0.592,1.185
						C271.831,300.977,272.283,301.022,272.764,300.966z M272.9,301.805c-0.601,0.087-1.343,0.059-1.915-0.4
						c-0.564-0.454-0.793-1.104-0.925-1.683c-0.243-1.183-0.156-2.323-0.121-3.422c0.053-2.132-0.29-4.326-0.686-6.477
						c-0.829-4.292-1.951-8.723-1.49-13.246c0.236-2.239,0.852-4.464,2.026-6.407c1.139-1.968,2.954-3.498,4.965-4.483
						c2.013-1.01,4.167-1.623,6.306-2.199c2.145-0.566,4.361-0.992,6.612-0.967c2.24,0.032,4.525,0.558,6.444,1.794
						c0.945,0.623,1.825,1.392,2.415,2.408c0.613,1.011,0.698,2.309,0.351,3.41c-0.327,1.122-1.002,2.086-1.733,2.931
						c-0.742,0.846-1.518,1.625-2.275,2.433c-1.524,1.603-3.04,3.209-4.499,4.863c-2.927,3.298-5.558,6.853-7.473,10.819
						c-0.991,1.968-1.927,3.988-3.104,5.9c-0.588,0.955-1.238,1.88-1.976,2.739C275.098,300.66,274.194,301.571,272.9,301.805z"/>
				</g>
				<g>
					<path style="fill:#593015;" d="M270.782,305.658c-1.44,2.809-2.769,5.662-4.032,8.544c-1.219,2.901-2.35,5.838-3.356,8.821
						c-1.984,5.976-3.468,12.117-4.563,18.326c-2.201,12.429-2.806,25.087-3.133,37.72l-0.429,18.976
						c-0.061,3.164-0.238,6.333-0.222,9.476c0.031,3.137,0.283,6.301,1.285,9.253c0.5,1.47,1.196,2.873,2.109,4.124
						c0.913,1.251,2.038,2.344,3.248,3.335c2.425,1.985,5.173,3.592,7.64,5.627c1.235,1.01,2.396,2.142,3.336,3.458
						c0.232,0.329,0.488,0.634,0.663,1.064c0.197,0.401,0.175,1.061-0.224,1.426c-0.37,0.361-0.813,0.478-1.22,0.575
						c-0.408,0.078-0.807,0.136-1.213,0.173c-1.617,0.136-3.229,0.02-4.817-0.222c-1.589-0.244-3.165-0.602-4.69-1.22
						c-0.256-0.104-0.379-0.395-0.276-0.651c0.104-0.256,0.395-0.379,0.651-0.276c0.004,0.001,0.008,0.003,0.012,0.005l0.014,0.006
						c2.79,1.227,5.977,1.848,9.054,1.704c0.743-0.066,1.617-0.11,2.051-0.521c0.438-0.383-0.014-1.112-0.486-1.723
						c-0.889-1.268-2.003-2.375-3.205-3.376c-2.42-1.995-5.183-3.573-7.67-5.585c-1.241-1.004-2.413-2.125-3.377-3.427
						c-0.963-1.301-1.697-2.761-2.225-4.281c-1.057-3.054-1.329-6.287-1.382-9.459c-0.033-3.185,0.107-6.34,0.142-9.502
						l0.257-18.982c0.254-12.651,0.876-25.36,3.059-37.881c1.091-6.254,2.577-12.448,4.571-18.488
						c1.016-3.012,2.125-5.997,3.438-8.896c1.307-2.901,2.813-5.71,4.483-8.413c0.085-0.137,0.265-0.18,0.402-0.095
						C270.807,305.354,270.85,305.524,270.782,305.658z"/>
				</g>
				<g>
					<path style="fill:#593015;" d="M252.389,427.019c1.517,0.309,2.948,1.046,4.201,1.968c1.266,0.918,2.356,2.03,3.416,3.137
						c0.514,0.583,1.074,1.029,1.571,1.828c0.234,0.396,0.365,0.953,0.258,1.449c-0.096,0.495-0.343,0.914-0.654,1.255
						c-0.645,0.684-1.442,0.983-2.136,1.289c-0.712,0.303-1.537,0.597-2.418,0.584c-0.856-0.031-1.51-0.116-2.259-0.064
						c-0.738,0.036-1.493,0.12-2.273,0.172c-0.78,0.049-1.591,0.062-2.412-0.073c-0.827-0.131-1.612-0.434-2.326-0.811
						c-0.717-0.379-1.372-0.833-1.994-1.306c-0.622-0.475-1.237-0.99-1.786-1.6c-0.548-0.6-1.027-1.328-1.331-2.1
						c-0.311-0.767-0.494-1.529-0.689-2.26c-0.78-2.952-1.555-5.931-2.042-8.986c-0.317-2.97-1.886-5.522-3.393-8.204
						c-0.756-1.338-1.442-2.758-1.968-4.238c-0.263-0.748-0.465-1.577-0.47-2.419c-0.01-0.833,0.127-1.634,0.298-2.398
						c0.689-3.055,2.018-5.955,3.876-8.466l0.018-0.026l-0.095,0.332c-0.59-8.001-0.789-16.024-0.743-24.036
						c0.049-8.014,0.313-16.017,0.52-24.017c0.21-7.996,0.387-16.001,0.26-23.981c-0.049-1.99-0.154-3.974-0.387-5.937
						c-0.116-0.982-0.268-1.957-0.46-2.924c-0.179-0.967-0.458-1.905-0.636-2.953c-0.081-0.522-0.128-1.068-0.077-1.626
						c0.047-0.56,0.216-1.107,0.435-1.613c0.458-1.014,1.171-1.818,1.881-2.544c1.415-1.445,2.992-2.671,3.502-4.515l0.002-0.008
						c0.039-0.139,0.183-0.221,0.322-0.183c0.122,0.034,0.2,0.149,0.192,0.271c-0.077,1.077-0.605,2.077-1.233,2.899
						c-0.618,0.848-1.377,1.525-2.034,2.254c-0.658,0.721-1.306,1.438-1.665,2.262c-0.371,0.817-0.442,1.696-0.274,2.635
						c0.156,0.926,0.444,1.913,0.632,2.913c0.199,0.996,0.356,1.999,0.476,3.004c0.24,2.011,0.349,4.028,0.401,6.038
						c0.137,8.027-0.031,16.031-0.232,24.036c-0.198,8.003-0.452,16.001-0.492,23.995c-0.078,7.994,0.062,15.987,0.605,23.956
						c0.008,0.122-0.03,0.24-0.095,0.332l-0.017,0.024c-1.744,2.419-2.976,5.205-3.594,8.114c-0.154,0.725-0.262,1.443-0.244,2.138
						c0.014,0.689,0.182,1.363,0.432,2.049c0.513,1.393,1.185,2.718,1.924,4.04c0.733,1.324,1.532,2.643,2.19,4.07
						c0.673,1.4,1.16,3,1.35,4.53c0.478,2.977,1.243,5.916,2.027,8.863c0.201,0.741,0.374,1.468,0.632,2.12
						c0.252,0.651,0.62,1.222,1.093,1.755c0.949,1.035,2.192,1.982,3.429,2.681c1.257,0.721,2.627,0.9,4.124,0.789
						c0.743-0.043,1.507-0.121,2.294-0.153c0.778-0.05,1.646,0.055,2.314,0.083c0.657,0.018,1.313-0.197,2-0.481
						c0.697-0.29,1.367-0.573,1.779-1.016c0.205-0.218,0.355-0.485,0.405-0.742c0.052-0.257,0.006-0.49-0.137-0.755
						c-0.296-0.513-0.913-1.082-1.407-1.638C257.187,430.606,255.091,428.504,252.389,427.019z"/>
				</g>
				<g>
					<path style="fill:#593015;" d="M260.438,214.103c-0.684,1.543-2.089,2.476-3.349,3.215c-1.302,0.744-2.519,1.408-3.581,2.359
						c-2.162,1.847-3.809,4.264-5.521,6.643c-1.681,2.415-3.63,4.719-5.822,6.723c-2.179,2.025-4.597,3.79-7.19,5.238
						c-0.225,0.126-0.51,0.045-0.636-0.18c-0.122-0.219-0.046-0.497,0.166-0.627c2.47-1.514,4.794-3.262,6.893-5.25
						c2.12-1.981,3.927-4.222,5.631-6.595c1.72-2.355,3.42-4.842,5.747-6.812c1.14-1.004,2.512-1.765,3.768-2.444
						c1.252-0.694,2.433-1.494,2.981-2.678c0.114-0.252,0.41-0.363,0.662-0.249C260.436,213.557,260.546,213.853,260.438,214.103z"
						/>
				</g>
				<g>
					<path style="fill:#593015;" d="M223.458,360.815c0.265,1.748,1.648,3.187,2.923,4.634c1.282,1.472,2.544,2.97,3.659,4.583
						c2.225,3.195,4.056,6.838,4.405,10.801c0.36,3.955-0.829,7.914-2.845,11.27c-2.019,3.388-4.841,6.214-7.87,8.691
						c-0.214,0.175-0.529,0.143-0.704-0.07c-0.175-0.214-0.143-0.529,0.07-0.704c0.007-0.006,0.016-0.012,0.023-0.018
						c3.105-2.253,5.961-4.929,7.99-8.197c1.996-3.251,3.207-7.103,2.807-10.923c-0.363-3.824-2.145-7.382-4.414-10.467
						c-1.132-1.556-2.385-3.027-3.709-4.432c-0.656-0.703-1.358-1.398-1.972-2.202c-0.611-0.797-1.149-1.732-1.348-2.799
						c-0.051-0.271,0.128-0.533,0.399-0.584c0.271-0.051,0.533,0.128,0.584,0.399C223.456,360.802,223.457,360.81,223.458,360.815z"
						/>
				</g>
				<g>
					<path style="fill:#593015;" d="M223.692,361.64c0.671,1.715,1.103,3.51,1.428,5.314c0.3,1.81,0.465,3.639,0.507,5.47
						c0.074,3.658-0.32,7.343-1.369,10.868l-0.001,0.003l-0.647-0.61c0.823-0.289,1.534-0.932,1.904-1.723l0.003-0.006
						c0.123-0.248,0.425-0.35,0.673-0.226c0.185,0.092,0.289,0.285,0.278,0.479c-0.141,2.479-0.881,4.906-2.032,7.091
						c-1.141,2.194-2.647,4.18-4.385,5.923c-1.75,1.729-3.721,3.206-5.783,4.498c-2.067,1.289-4.232,2.388-6.428,3.386l-0.012,0.006
						l-0.179-0.948c1.606,0.13,3.251-0.171,4.707-0.862l0.014-0.007c0.252-0.116,0.55-0.006,0.666,0.246
						c0.073,0.158,0.052,0.341-0.032,0.48c-0.677,1.084-1.727,1.84-2.788,2.379c-1.072,0.555-2.177,0.892-3.264,1.272
						c-2.187,0.737-4.43,1.286-6.679,1.754c-4.505,0.932-9.065,1.395-13.588,1.929c-4.521,0.536-9.052,1.028-13.443,2.074
						c-1.098,0.265-2.175,0.552-3.131,1.037c-0.951,0.472-1.769,1.197-2.182,2.125c-0.204,0.46-0.298,0.962-0.282,1.472
						c0.018,0.494,0.153,1.054,0.299,1.563c0.291,1.021,1.037,1.721,2.036,2.206c3.958,2.116,8.584,2.517,13.091,2.771
						c4.545,0.264,9.091,0.368,13.643,0.34c4.551-0.031,9.104-0.161,13.656-0.352l6.826-0.319c2.259-0.121,4.551-0.362,6.884-0.233
						c0.276,0.015,0.487,0.251,0.472,0.527c-0.015,0.276-0.251,0.487-0.527,0.472l-0.006,0c-2.224-0.146-4.487,0.066-6.777,0.169
						l-6.838,0.254c-4.558,0.167-9.12,0.311-13.686,0.335c-4.564,0.026-9.138-0.081-13.695-0.349
						c-4.524-0.261-9.272-0.652-13.439-2.875c-0.517-0.262-1.055-0.602-1.494-1.06c-0.446-0.457-0.761-1.047-0.943-1.629
						c-0.175-0.582-0.326-1.136-0.366-1.782c-0.032-0.629,0.077-1.276,0.327-1.862c0.502-1.181,1.493-2.056,2.563-2.611
						c1.074-0.565,2.216-0.881,3.324-1.169c4.468-1.141,9.019-1.706,13.537-2.313c4.523-0.582,9.029-1.188,13.462-2.071
						c2.217-0.439,4.406-0.987,6.565-1.626c1.076-0.334,2.16-0.661,3.141-1.104c0.984-0.439,1.878-1.033,2.463-1.868l0.633,0.725
						l-0.016,0.007c-1.618,0.767-3.432,1.1-5.217,0.956c-0.275-0.022-0.48-0.263-0.458-0.538c0.014-0.177,0.118-0.324,0.264-0.402
						l0.015-0.008l0.012-0.006c2.118-1.107,4.202-2.263,6.184-3.557c1.984-1.289,3.861-2.729,5.531-4.375
						c1.677-1.629,3.133-3.493,4.24-5.545c1.094-2.054,1.863-4.288,2.116-6.603l0.951,0.253l-0.004,0.007
						c-0.49,1.04-1.392,1.856-2.476,2.241c-0.26,0.092-0.545-0.044-0.638-0.304c-0.035-0.097-0.037-0.198-0.013-0.291l0.004-0.016
						l0.001-0.003c0.935-3.425,1.304-7.006,1.212-10.563c-0.109-3.558-0.695-7.098-1.761-10.48
						c-0.083-0.264,0.063-0.544,0.327-0.628C223.327,361.265,223.596,361.398,223.692,361.64z"/>
				</g>
				<g>
					<path style="fill:#593015;" d="M256.545,356.834c1.718,0.419,3.245,1.403,4.459,2.601c1.221,1.191,2.262,2.567,3.06,4.065
						c0.805,1.495,1.407,3.072,1.894,4.682c0.485,1.611,0.771,3.331,0.641,5.043c-0.233,3.44-1.835,6.6-3.891,9.245
						c-1.027,1.33-2.223,2.548-3.418,3.688c-1.184,1.16-2.404,2.34-3.8,3.321c-0.225,0.16-0.537,0.107-0.697-0.118
						c-0.16-0.225-0.107-0.537,0.118-0.697c0.003-0.002,0.01-0.007,0.013-0.009c1.345-0.893,2.565-1.981,3.766-3.121
						c1.214-1.137,2.359-2.282,3.374-3.568c1.998-2.543,3.603-5.551,3.773-8.788c0.109-1.604-0.166-3.209-0.646-4.765
						c-0.484-1.558-1.083-3.091-1.864-4.511c-0.775-1.422-1.76-2.721-2.934-3.824c-1.166-1.097-2.553-1.933-4.079-2.27
						c-0.27-0.06-0.44-0.326-0.381-0.596c0.059-0.27,0.326-0.44,0.596-0.381c0.003,0.001,0.006,0.001,0.008,0.002L256.545,356.834z"
						/>
				</g>
				<path style="fill:none;stroke:#593015;stroke-linecap:round;stroke-linejoin:round;stroke-miterlimit:10;" d="M237.707,394.707
					c-4.717,2.697-9.389,4.233-13.064,8.235c-0.289,0.314-0.58,0.677-0.59,1.104c-0.012,0.522,0.404,0.958,0.852,1.225
					c1.033,0.615,2.296,0.652,3.497,0.672c1.892,0.032,3.785,0.064,5.677,0.096"/>
				<g>
					<path style="fill:#593015;" d="M254.695,405.512c2.173,0.25,4.338,0.701,6.402,1.483c2.06,0.778,4.019,1.913,5.63,3.466
						c0.802,0.779,1.518,1.683,1.986,2.744c0.228,0.533,0.395,1.094,0.458,1.689c0.052,0.593,0.01,1.273-0.443,1.857
						c-0.223,0.287-0.563,0.487-0.878,0.581c-0.318,0.099-0.62,0.128-0.897,0.154l-1.643,0.076l-3.288,0.15
						c-0.276,0.013-0.51-0.201-0.522-0.476c-0.013-0.276,0.201-0.51,0.476-0.522c0.003,0,0.006,0,0.009,0l0.045-0.001l3.234-0.077
						c1.016-0.073,2.375,0.118,2.802-0.427c0.496-0.607,0.295-1.794-0.075-2.698c-0.39-0.943-1.026-1.796-1.766-2.546
						c-1.494-1.505-3.349-2.643-5.336-3.444c-1.991-0.805-4.108-1.298-6.248-1.591c-0.115-0.016-0.196-0.122-0.18-0.237
						C254.478,405.579,254.582,405.499,254.695,405.512z"/>
				</g>
				<g>
					<path style="fill:#593015;" d="M257.59,410.438c0.997,0.575,1.88,1.349,2.646,2.232c0.749,0.908,1.405,1.858,1.808,3.06
						c0.186,0.596,0.262,1.311,0.042,1.987c-0.196,0.658-0.712,1.312-1.474,1.547c-0.753,0.222-1.423,0.048-1.96-0.073
						c-0.548-0.134-1.023-0.213-1.381-0.094l-0.014,0.005c-0.262,0.087-0.545-0.054-0.633-0.316
						c-0.083-0.248,0.041-0.515,0.276-0.617c0.722-0.311,1.429-0.145,1.975-0.051c0.561,0.105,1.052,0.207,1.403,0.086
						c0.344-0.095,0.62-0.428,0.779-0.835c0.158-0.405,0.146-0.878,0.022-1.367c-0.272-0.973-0.847-1.978-1.418-2.907
						C259.075,412.153,258.368,411.281,257.59,410.438z"/>
				</g>
				<path style="fill:none;stroke:#593015;stroke-linecap:round;stroke-linejoin:round;stroke-miterlimit:10;" d="M239.309,418.173
					c-3.566,0.887-14.97,3.282-18.501,3.363"/>
				<g>
					<path style="fill:#593015;" d="M224.083,421.037c2.201,0.141,4.326,0.778,6.334,1.591c2.007,0.843,3.91,2.017,5.441,3.609
						c0.761,0.796,1.435,1.715,1.844,2.778c0.207,0.532,0.334,1.086,0.371,1.676c0.021,0.578-0.062,1.253-0.556,1.771
						c-0.52,0.521-1.217,0.557-1.728,0.597l-1.61,0.082l-3.225,0.199c-0.276,0.017-0.513-0.193-0.53-0.468
						c-0.017-0.276,0.193-0.513,0.468-0.53c0.009,0,0.017-0.001,0.025-0.001l0.044,0l3.178-0.024l1.591-0.03
						c0.529-0.025,0.997-0.091,1.25-0.357c0.268-0.26,0.377-0.736,0.354-1.207c-0.035-0.474-0.149-0.975-0.337-1.435
						c-0.368-0.932-0.987-1.77-1.706-2.505c-1.451-1.48-3.269-2.582-5.2-3.37c-1.945-0.783-3.997-1.3-6.07-1.379
						c-0.276-0.01-0.491-0.243-0.481-0.519c0.01-0.276,0.243-0.491,0.519-0.481c0.004,0,0.007,0,0.011,0L224.083,421.037z"/>
				</g>
				<g>
					<path style="fill:#593015;" d="M226.519,426.064c1.563,1.039,2.894,2.472,3.859,4.139c0.451,0.838,0.947,1.822,0.625,3.034
						c-0.183,0.566-0.541,1.032-0.995,1.387c-0.456,0.361-1.06,0.577-1.643,0.589c-0.583,0.01-1.04-0.076-1.507-0.13
						c-0.446-0.051-0.949-0.13-1.433-0.217c-0.882-0.172-1.778-0.296-2.683-0.366c-1.811-0.132-3.646-0.14-5.487-0.055
						l-11.167,0.662l-5.609,0.323c-1.902,0.062-3.762,0.078-5.637,0.098l-22.428,0.15c-3.735,0.043-7.47,0.11-11.197,0.244
						c-1.865,0.064-3.72,0.164-5.57,0.307c-1.89,0.152-3.824,0.194-5.737-0.168c-3.819-0.682-7.306-2.659-10.067-5.295
						c-2.763-2.649-4.872-5.952-6.19-9.524c-1.341-3.569-1.962-7.362-2.114-11.135c-0.175-3.783,0.188-7.553,0.676-11.272
						c0.971-7.459,3.022-14.776,5.918-21.707c2.884-6.944,6.452-13.545,9.967-20.141l-0.016,0.033
						c2.751-6.1,5.544-12.174,8.528-18.173c1.48-3.014,3.167-5.926,4.806-8.827l4.969-8.713
						c6.684-11.582,13.675-23.027,21.627-33.818c7.946-10.775,16.916-20.882,27.279-29.43l3.917-3.134
						c1.281-1.04,2.502-2.142,3.41-3.454c0.943-1.297,1.368-2.824,1.67-4.463c0.289-1.632,0.712-3.354,1.446-4.907
						c2.885-6.251,9.431-10.688,16.379-10.71c0.276-0.001,0.501,0.222,0.502,0.498c0.001,0.276-0.222,0.501-0.498,0.502h-0.003
						c-6.511,0.008-12.761,4.236-15.465,10.13c-0.693,1.479-1.077,3.028-1.372,4.683c-0.163,0.824-0.34,1.666-0.627,2.497
						c-0.284,0.834-0.704,1.627-1.202,2.345c-1.001,1.444-2.296,2.601-3.602,3.664l-3.911,3.13
						c-10.28,8.484-19.192,18.528-27.1,29.257c-7.913,10.744-14.882,22.158-21.554,33.727l-4.962,8.707
						c-1.647,2.918-3.312,5.794-4.779,8.783c-2.968,5.972-5.76,12.047-8.503,18.134l-0.016,0.033
						c-3.514,6.595-7.065,13.175-9.917,20.05c-2.865,6.864-4.882,14.071-5.842,21.447c-0.483,3.688-0.837,7.391-0.664,11.086
						c0.149,3.688,0.757,7.368,2.051,10.807c1.27,3.438,3.286,6.596,5.941,9.11c2.646,2.502,5.952,4.343,9.518,4.962
						c1.768,0.329,3.612,0.285,5.439,0.129c1.876-0.155,3.754-0.264,5.625-0.337c3.745-0.152,7.486-0.236,11.226-0.297l22.43-0.254
						c1.863-0.028,3.743-0.046,5.574-0.153c1.843-0.13,3.721-0.288,5.579-0.453l5.587-0.479c1.861-0.15,3.721-0.329,5.623-0.377
						c1.893-0.057,3.806-0.048,5.715,0.198c0.954,0.12,1.908,0.28,2.849,0.526c0.795,0.191,1.874,0.426,2.598,0.491
						c0.352,0.006,0.682-0.066,0.983-0.257c0.303-0.189,0.567-0.476,0.702-0.792c0.263-0.614,0.032-1.548-0.338-2.341
						C228.966,428.885,227.881,427.354,226.519,426.064z"/>
				</g>
				<path style="fill:none;stroke:#593015;stroke-linecap:round;stroke-linejoin:round;stroke-miterlimit:10;" d="M232.066,372.786
					c2.012-1.549,3.9-3.259,5.64-5.108"/>
				<path style="fill:none;stroke:#593015;stroke-linecap:round;stroke-linejoin:round;stroke-miterlimit:10;" d="M179.313,421.747
					c17.763-0.629,35.354-9.362,46.865-22.906"/>
			</g>
			<g>
				<circle style="fill:#B37148;" cx="276.53" cy="164.819" r="3.561"/>
				<circle style="fill:#B37148;" cx="309.719" cy="163.203" r="3.561"/>
			</g>
			<g>
				<g>
					<path style="fill:#593015;" d="M313.842,364.648c0.394,0.841,0.483,1.681,0.5,2.522c-0.015,0.841-0.103,1.681-0.5,2.522
						c-0.396-0.841-0.485-1.681-0.5-2.522C313.36,366.33,313.448,365.489,313.842,364.648z"/>
				</g>
				<g>
					<path style="fill:#593015;" d="M318.354,368.709c0.394,0.526,0.483,1.053,0.5,1.579c-0.015,0.526-0.103,1.053-0.5,1.579
						c-0.396-0.526-0.485-1.053-0.5-1.579C317.871,369.762,317.96,369.235,318.354,368.709z"/>
				</g>
				<g>
					<path style="fill:#593015;" d="M243.457,383.598c0.394,0.756,0.483,1.512,0.5,2.267c-0.015,0.756-0.103,1.512-0.5,2.267
						c-0.396-0.756-0.485-1.511-0.5-2.267C242.975,385.109,243.063,384.354,243.457,383.598z"/>
				</g>
				<g>
					<path style="fill:#593015;" d="M247.067,388.561c0.394,0.602,0.483,1.203,0.5,1.805c-0.015,0.602-0.103,1.203-0.5,1.805
						c-0.396-0.602-0.485-1.203-0.5-1.805C246.584,389.764,246.673,389.163,247.067,388.561z"/>
				</g>
				<g>
					<path style="fill:#593015;" d="M320.61,180.565l-0.5-3.609h1L320.61,180.565z M320.61,180.565l-0.5-3.609
						c-0.038-0.276,0.155-0.531,0.431-0.569c0.276-0.038,0.531,0.155,0.569,0.431c0.006,0.046,0.006,0.094,0,0.139L320.61,180.565z"
						/>
				</g>
				<g>
					<path style="fill:#593015;" d="M183.45,413.376c0.394,0.476,0.483,0.951,0.5,1.427c-0.015,0.476-0.103,0.951-0.5,1.427
						c-0.396-0.476-0.485-0.951-0.5-1.427C182.967,414.327,183.056,413.852,183.45,413.376z"/>
				</g>
			</g>
		</g>
	</g>
</g>
<g id="TEXTS">
	<g>
		<text transform="matrix(1 0 0 1 163.9758 62.1399)" style="fill:#593015; font-family:'Chango-Regular'; font-size:29.7973px;">Pinscher</text>
	</g>
</g>
</svg>
