<svg width="212" height="61" viewBox="0 0 212 61" fill="none" xmlns="http://www.w3.org/2000/svg">
<g clip-path="url(#clip0_52_285)">
<path d="M1 37.5215H211.207V39.0452H1V37.5215Z" fill="#F77719"/>
<path d="M105.736 4.76776H124.961V27.4326H128.108V39.7042H119.926V35.1715H107.91V39.7042H99.7274V27.4326H102.589L105.736 4.76776ZM110.084 27.4326H116.779V12.5072H112.316L110.084 27.4326ZM129.185 4.76776H152.474V26.3819H137.367V35.1715H129.185V4.76776ZM137.367 12.5072V19.1958H144.291V12.5072H137.367ZM155.553 4.76776H179.012V35.1715H155.553V4.76776ZM163.735 12.5072V27.4326H170.83V12.5072H163.735ZM182.378 4.76776H190.56L196.969 16.653L203.378 4.76776H211.56V35.1715H203.378V16.5426L196.969 28.3168L190.56 16.5426V35.1715H182.378V12.5072V4.76776Z" fill="white"/>
<path d="M4.89432 4.76776H21.7168L25.6077 35.1715H17.5972L16.9675 28.5933H9.64362L9.01391 35.1715H1.00342L4.89432 4.76776ZM10.4446 20.8539H16.1666L15.3656 12.5072H11.2455L10.4446 20.8539ZM26.3972 4.76776H49.8569V16.9295L46.0235 19.9696L49.8569 23.0098V35.1715H26.3972V12.5072V4.76776ZM41.8464 11.4015H34.4076V16.9295H39.6717L41.8464 14.718V11.4015ZM34.4076 23.0098V28.5378H41.8464V25.2212L39.6717 23.0098H34.4076ZM50.5895 4.76776H73.8781V12.5072H66.3249V35.1715H58.1426V12.5072H50.5895V4.76776ZM74.8393 4.76776H98.2991V35.1715H74.8393V4.76776ZM83.0216 12.5072V27.4326H90.1168V12.5072H83.0216Z" fill="#F77719"/>
<path d="M1 0.951752H211.207V2.47549H1V0.951752Z" fill="white"/>
</g>
<path d="M4.21101 47.5415H6.33053L9.66845 56.4258H7.4474L6.87627 54.7631H3.65257L3.09414 56.4258H0.885774L4.21101 47.5415ZM4.10947 53.2528H6.41937L5.27711 49.8641L4.10947 53.2528ZM23.8813 47.5415H28.3361C30.6587 47.5415 31.0775 48.8361 31.0775 49.8007C31.0775 50.8287 30.4683 51.3744 29.618 51.6537V51.6664C30.3033 51.806 31.509 52.3009 31.509 53.9382C31.509 56.0831 29.6941 56.4258 28.1076 56.4258H23.8813V47.5415ZM25.9754 49.2676V51.0445H27.9046C28.7422 51.0445 28.9453 50.4733 28.9453 50.1307C28.9453 49.7626 28.7422 49.2676 27.8157 49.2676H25.9754ZM25.9754 52.6817V54.6997H28.1457C28.5138 54.6997 29.3007 54.5093 29.3007 53.697C29.3007 52.8594 28.6407 52.6817 27.8792 52.6817H25.9754ZM48.3962 49.2676H45.7055V47.5415H53.1683V49.2676H50.4903V56.4258H48.3962V49.2676ZM71.1325 56.6796C67.6296 56.6796 66.6396 54.0524 66.6396 51.9836C66.6396 49.9149 67.6296 47.2877 71.1325 47.2877C74.1912 47.2877 75.6254 49.293 75.6254 51.9836C75.6254 54.6743 74.1912 56.6796 71.1325 56.6796ZM71.1325 54.9535C73.2647 54.9535 73.3663 52.7325 73.3663 51.9836C73.3663 51.1968 73.2774 49.0138 71.1325 49.0138C69.6983 49.0138 68.8988 49.953 68.8988 51.9836C68.8988 54.3062 69.9649 54.9535 71.1325 54.9535ZM96.4261 53.2909H98.5076C98.368 54.6235 97.6192 56.6796 94.4716 56.6796C92.1998 56.6796 90.1183 55.6389 90.1183 52.1486C90.1183 47.4654 93.5451 47.2877 94.3955 47.2877C97.543 47.2877 98.3426 49.2549 98.406 50.5622H96.35C96.1596 49.0772 94.9793 49.0138 94.497 49.0138C94.0274 49.0138 92.3775 49.1026 92.3775 52.0725C92.3775 53.7478 93.139 54.9535 94.5604 54.9535C95.9312 54.9535 96.3373 53.9509 96.4261 53.2909ZM115.304 51.0698H119.645V52.7071H115.304V54.6997H120.356V56.4258H113.21V47.5415H120.229V49.2676H115.304V51.0698ZM135.003 47.5415H139.141C140.943 47.5415 142.491 48.2142 142.491 50.4099C142.491 53.1894 140.169 53.367 139.09 53.367H137.097V56.4258H135.003V47.5415ZM137.097 49.2676V51.641H138.735C139.725 51.641 140.232 51.2856 140.232 50.4226C140.232 49.2168 139.204 49.2676 138.735 49.2676H137.097ZM157.193 47.5415H161.648C163.97 47.5415 164.389 48.8361 164.389 49.8007C164.389 50.8287 163.78 51.3744 162.93 51.6537V51.6664C163.615 51.806 164.821 52.3009 164.821 53.9382C164.821 56.0831 163.006 56.4258 161.419 56.4258H157.193V47.5415ZM159.287 49.2676V51.0445H161.216C162.054 51.0445 162.257 50.4733 162.257 50.1307C162.257 49.7626 162.054 49.2676 161.127 49.2676H159.287ZM159.287 52.6817V54.6997H161.457C161.826 54.6997 162.612 54.5093 162.612 53.697C162.612 52.8594 161.952 52.6817 161.191 52.6817H159.287ZM181.898 53.2782L185.439 47.5415H187.533V56.4258H185.439V50.6256L181.898 56.4258H179.804V47.5415H181.898V53.2782ZM208.763 53.2909H210.844C210.705 54.6235 209.956 56.6796 206.808 56.6796C204.536 56.6796 202.455 55.6389 202.455 52.1486C202.455 47.4654 205.882 47.2877 206.732 47.2877C209.88 47.2877 210.679 49.2549 210.743 50.5622H208.687C208.496 49.0772 207.316 49.0138 206.834 49.0138C206.364 49.0138 204.714 49.1026 204.714 52.0725C204.714 53.7478 205.476 54.9535 206.897 54.9535C208.268 54.9535 208.674 53.9509 208.763 53.2909Z" fill="white"/>
<defs>
<clipPath id="clip0_52_285">
<rect width="211" height="48.7596" fill="white" transform="translate(1 0.951752)"/>
</clipPath>
</defs>
</svg>
